<svg xmlns="http://www.w3.org/2000/svg" width="541" height="512" viewBox="0 0 541 512">
<g>
<path d="M 177.50 474.49 C175.17,479.13 172.55,480.17 171.64,476.80 C170.89,474.00 174.03,469.37 176.38,469.79 C177.44,469.99 178.00,469.38 178.00,468.05 C178.00,466.21 183.99,460.86 187.31,459.72 C188.07,459.46 187.18,457.34 184.88,453.90 C180.49,447.34 174.35,433.06 173.42,427.25 C173.05,424.91 172.53,423.00 172.27,423.00 C172.00,423.00 170.15,424.30 168.14,425.89 C156.96,434.74 135.23,441.97 119.75,441.99 C111.83,442.00 111.00,441.82 111.00,440.11 C111.00,439.07 110.33,437.96 109.52,437.64 C108.70,437.33 108.26,436.50 108.53,435.79 C108.87,434.90 107.80,434.42 105.06,434.23 C93.89,433.47 73.06,426.19 63.55,419.72 C56.90,415.21 50.76,408.84 51.93,407.67 C52.52,407.08 53.00,405.79 53.00,404.80 C53.00,403.81 53.67,403.00 54.50,403.00 C57.04,403.00 56.19,401.04 51.25,395.48 C40.99,383.95 36.98,373.84 37.02,359.54 C37.05,350.89 38.65,345.95 43.51,339.58 C46.51,335.64 48.99,334.38 50.15,336.22 C51.59,338.48 51.07,339.89 47.61,343.03 C43.04,347.20 41.54,352.90 42.33,363.18 C42.86,370.04 43.60,372.51 47.25,379.61 C51.29,387.49 60.62,398.66 65.20,401.11 C67.39,402.28 67.52,404.33 65.50,406.00 C64.68,406.68 64.00,408.73 64.00,410.54 C64.00,413.54 64.56,414.14 70.29,417.35 C73.75,419.28 79.26,421.54 82.54,422.37 C85.82,423.21 93.00,425.06 98.50,426.50 C105.60,428.35 110.03,428.97 113.76,428.63 C118.31,428.21 119.42,428.48 121.99,430.64 C126.48,434.43 133.61,434.79 143.17,431.72 C154.25,428.17 163.09,422.88 168.45,416.61 L 173.04 411.24 L 172.38 404.22 C171.92,399.18 171.11,396.41 169.52,394.43 C167.34,391.69 167.26,391.67 161.49,392.83 C158.29,393.47 152.58,394.00 148.81,394.00 C142.89,394.00 140.84,393.46 133.71,390.04 C125.27,386.00 119.25,381.02 120.45,379.08 C120.93,378.31 121.76,378.35 123.31,379.21 C124.51,379.88 125.91,380.31 126.40,380.16 C127.57,379.82 141.69,386.69 142.49,387.98 C142.85,388.56 145.56,388.70 149.14,388.33 C153.35,387.89 155.42,388.06 155.93,388.89 C156.80,390.29 162.00,388.70 162.00,387.02 C162.00,386.46 162.70,386.00 163.55,386.00 C166.45,386.00 169.76,381.43 170.88,375.90 C171.48,372.93 173.16,362.46 174.61,352.63 L 177.24 334.77 L 174.47 332.55 L 171.69 330.34 L 173.10 293.37 L 167.80 290.49 C164.88,288.91 159.41,284.60 155.64,280.91 C149.15,274.57 148.60,274.25 145.64,275.10 C143.92,275.60 142.45,276.00 142.37,276.00 C141.98,276.00 138.98,263.13 138.76,260.50 C138.53,257.83 138.18,257.53 135.60,257.81 L 132.71 258.12 L 133.29 253.18 C134.43,243.56 143.68,220.21 149.97,211.08 C150.95,209.66 155.47,202.88 160.02,196.00 C164.58,189.12 170.72,180.58 173.67,177.01 C178.95,170.63 180.98,166.13 180.99,160.82 C181.00,156.31 182.89,152.73 188.00,147.50 C192.31,143.09 193.09,141.62 194.58,135.01 C196.05,128.50 198.04,123.73 200.02,122.00 C200.96,121.18 203.91,110.00 205.04,103.00 C205.61,99.43 207.97,90.97 210.27,84.22 C214.00,73.24 214.30,71.71 213.06,69.72 C211.80,67.69 211.82,67.62 213.34,68.87 C214.25,69.63 215.00,69.95 215.00,69.60 C215.00,69.24 216.35,69.65 218.00,70.50 C221.37,72.24 221.68,73.19 219.50,75.00 C218.68,75.68 218.00,76.86 218.00,77.62 C218.00,78.38 217.64,79.00 217.20,79.00 C216.19,79.00 214.30,84.35 213.56,89.35 C213.00,93.09 211.55,100.19 208.43,114.50 C206.66,122.58 206.52,124.42 207.33,128.42 C208.03,131.83 208.69,132.33 216.00,134.99 C219.02,136.10 223.98,138.29 227.00,139.87 C230.02,141.45 233.85,143.07 235.50,143.46 C237.15,143.84 239.30,145.02 240.28,146.07 C241.26,147.12 243.06,148.18 244.28,148.42 C257.49,151.09 266.93,153.68 271.73,155.95 C274.91,157.45 279.31,159.01 281.51,159.41 C285.17,160.08 297.55,163.79 304.30,166.26 C305.84,166.82 307.81,168.68 308.70,170.39 C311.15,175.15 315.09,180.00 316.51,180.00 C317.21,180.00 318.06,180.71 318.39,181.57 C318.93,182.99 319.16,182.99 320.64,181.50 C323.54,178.60 327.00,172.97 327.00,171.15 C327.00,168.80 328.63,166.98 333.80,163.53 C337.65,160.96 338.25,160.82 339.62,162.19 C340.98,163.56 340.97,163.88 339.52,165.34 C338.63,166.23 337.22,167.34 336.39,167.80 C335.13,168.50 335.09,169.09 336.10,171.32 C336.77,172.80 337.70,174.00 338.16,174.00 C338.62,174.00 339.00,174.64 339.00,175.42 C339.00,176.20 339.35,176.98 339.77,177.17 C340.20,177.35 341.99,179.70 343.75,182.39 C345.67,185.32 347.12,186.72 347.37,185.89 C347.59,185.12 348.75,179.74 349.93,173.92 C351.54,165.97 351.82,162.67 351.06,160.67 C349.88,157.55 349.30,157.42 346.82,159.66 C344.79,161.50 343.12,160.79 344.75,158.77 C345.90,157.34 345.82,149.40 344.62,146.81 C344.02,145.53 344.76,144.54 347.79,142.63 C352.25,139.82 353.69,135.82 351.40,132.56 C349.21,129.43 349.65,129.00 354.96,129.00 C359.58,129.00 360.11,128.74 362.46,125.27 C366.35,119.55 365.55,117.00 359.89,117.00 C357.22,117.00 356.54,114.66 358.15,111.00 C360.01,106.79 362.30,107.58 363.40,112.81 C364.30,117.09 364.32,117.10 368.40,116.80 C372.03,116.53 372.72,116.06 374.53,112.57 C377.09,107.61 378.64,107.07 379.20,110.94 C379.51,113.01 378.84,115.32 377.07,118.25 C372.60,125.68 364.29,136.32 359.02,141.35 C355.56,144.66 354.23,146.57 354.86,147.35 C355.38,147.98 356.51,150.93 357.39,153.89 C359.50,161.05 363.20,167.23 369.68,174.43 C373.53,178.71 374.67,180.59 373.76,181.17 C372.79,181.79 372.82,181.97 373.92,181.98 C374.70,181.99 375.05,182.28 374.70,182.63 C373.69,183.64 375.91,186.97 377.27,186.47 C377.94,186.22 378.95,186.35 379.50,186.76 C381.68,188.37 388.75,197.65 389.43,199.79 C389.83,201.03 391.13,202.70 392.33,203.48 C393.52,204.27 395.62,207.07 397.00,209.70 C398.38,212.34 399.73,214.73 400.00,215.00 C403.82,218.82 411.75,234.60 412.94,240.74 C414.76,250.15 415.10,257.00 413.76,257.01 C413.07,257.01 411.66,259.60 410.64,262.76 C407.72,271.79 405.97,274.95 399.78,282.34 C396.60,286.14 394.01,290.20 394.02,291.37 C394.03,292.54 395.15,294.56 396.52,295.85 C399.42,298.60 399.90,304.92 397.62,310.36 C395.81,314.71 389.54,319.82 384.25,321.26 L 380.00 322.41 L 380.00 329.82 C380.00,336.95 380.14,337.39 383.87,341.86 C389.43,348.52 396.93,362.95 398.63,370.24 C399.51,374.00 400.00,380.39 399.86,386.25 C399.65,394.87 399.42,396.00 397.83,396.00 C396.69,396.00 395.82,397.00 395.43,398.75 C393.18,408.93 388.84,417.54 382.11,425.15 C379.85,427.71 378.00,430.30 378.00,430.90 C378.00,431.62 381.28,432.00 387.53,432.00 C398.41,432.00 403.46,433.52 403.71,436.86 C403.85,438.70 403.47,438.93 400.99,438.50 C399.40,438.22 396.87,437.52 395.37,436.95 C393.86,436.38 386.75,435.86 379.57,435.80 C372.38,435.74 366.13,435.49 365.67,435.24 C364.56,434.63 369.00,430.00 370.71,430.00 C371.46,430.00 373.00,428.42 374.13,426.50 C375.27,424.58 376.72,422.99 377.35,422.97 C379.43,422.91 382.15,420.20 382.51,417.83 C383.00,414.51 385.24,408.95 387.31,405.86 C388.48,404.12 389.36,400.04 389.89,393.86 C390.34,388.71 391.41,382.84 392.28,380.82 C393.67,377.54 393.68,376.59 392.39,372.32 C391.60,369.67 390.72,366.22 390.44,364.65 C389.72,360.59 386.63,354.91 383.60,352.08 C382.17,350.74 381.00,349.12 381.00,348.46 C381.00,346.30 377.09,342.25 374.52,341.76 C371.74,341.23 367.00,344.77 367.00,347.38 C367.00,349.03 363.59,350.48 362.01,349.51 C361.45,349.16 361.00,348.24 361.00,347.46 C361.00,345.55 356.67,344.57 354.16,345.91 C353.04,346.51 350.81,347.00 349.19,347.00 C347.57,347.00 344.32,347.68 341.96,348.51 C339.60,349.35 336.90,349.78 335.96,349.49 C335.02,349.19 331.97,346.46 329.18,343.42 C324.33,338.11 323.97,337.91 320.31,338.56 C316.67,339.20 314.14,341.44 306.84,350.45 C305.38,352.25 304.05,352.50 295.84,352.50 C282.49,352.50 269.26,351.83 265.09,350.95 C258.54,349.56 243.63,347.13 234.50,345.97 C226.66,344.96 218.96,343.17 197.53,337.35 C190.14,335.34 185.80,335.64 183.93,338.28 C182.06,340.93 180.19,350.97 178.94,365.16 C178.44,370.84 177.54,379.10 176.94,383.50 C176.32,388.04 176.16,394.74 176.56,399.00 C176.95,403.12 177.39,408.30 177.53,410.50 C178.34,423.12 180.75,432.68 185.56,442.45 C186.90,445.17 188.00,447.88 188.00,448.46 C188.00,449.05 189.80,451.71 192.00,454.38 C194.20,457.04 196.00,459.56 196.00,459.99 C196.00,461.38 193.36,462.98 189.90,463.66 C188.03,464.04 185.38,465.54 184.00,467.01 C182.62,468.47 181.05,469.86 180.50,470.08 C179.95,470.31 178.60,472.29 177.50,474.49 ZM 192.72 318.41 C195.83,320.45 197.78,320.89 203.76,320.94 C210.24,320.99 211.45,320.69 215.05,318.08 C219.40,314.93 222.02,311.48 226.28,303.27 C230.17,295.78 230.08,287.68 226.02,279.50 C223.03,273.48 222.47,272.50 218.27,265.95 C217.02,263.99 216.00,261.72 216.00,260.91 C216.00,260.09 215.10,257.66 214.00,255.50 C211.50,250.59 211.47,248.35 213.90,247.05 C214.95,246.49 217.65,243.72 219.90,240.89 C224.45,235.17 225.57,236.67 221.43,242.93 C218.54,247.30 218.41,252.62 221.16,254.34 C223.42,255.75 230.60,253.54 232.81,250.75 C233.74,249.58 235.74,247.48 237.25,246.09 C238.76,244.69 240.00,243.03 240.00,242.40 C240.00,241.76 240.63,240.72 241.40,240.08 C242.17,239.44 243.60,235.97 244.57,232.37 C246.14,226.58 246.21,224.66 245.17,215.80 C243.99,205.70 242.89,202.57 236.75,191.81 C234.96,188.67 232.53,184.40 231.35,182.31 C226.19,173.18 209.84,166.24 197.43,167.91 C189.92,168.92 181.34,174.41 177.26,180.79 C176.31,182.28 174.76,184.07 173.82,184.77 C172.88,185.47 171.10,187.83 169.87,190.02 C168.64,192.21 167.04,194.06 166.32,194.12 C165.59,194.19 164.47,194.31 163.83,194.38 C163.18,194.44 162.59,195.85 162.52,197.50 C162.44,199.15 160.94,202.48 159.19,204.90 C157.43,207.32 156.00,209.78 156.00,210.37 C156.00,210.95 153.81,215.27 151.14,219.97 C148.47,224.66 145.70,230.75 144.99,233.50 C144.28,236.25 143.02,239.29 142.19,240.25 C140.88,241.78 140.85,242.94 142.01,249.25 C143.81,259.13 144.22,260.06 149.35,265.83 C151.81,268.60 154.10,271.75 154.44,272.82 C155.89,277.38 181.09,292.18 191.50,294.58 C198.83,296.27 199.56,301.38 192.67,302.74 C186.86,303.89 184.88,307.42 187.25,312.40 C188.18,314.34 190.64,317.04 192.72,318.41 ZM 310.05 292.75 C310.86,294.76 311.65,295.00 317.43,295.00 L 323.91 295.00 L 324.53 291.25 C325.49,285.47 325.50,285.46 330.61,283.51 C335.37,281.69 335.45,281.70 339.39,283.86 L 343.37 286.04 L 346.77 282.77 C352.08,277.66 352.37,276.59 349.38,273.03 C346.79,269.96 346.78,269.88 348.39,265.71 C350.65,259.87 350.98,259.53 355.50,258.46 L 359.50 257.50 L 359.50 244.56 L 355.50 243.44 C352.08,242.48 351.23,241.66 349.60,237.75 C347.71,233.20 347.72,233.15 349.84,228.87 L 351.97 224.55 L 348.28 220.78 C344.04,216.43 342.35,216.15 338.53,219.16 L 335.79 221.31 L 330.52 218.73 C325.87,216.45 325.16,215.69 324.53,212.32 C323.66,207.65 322.77,207.03 316.81,207.02 C311.67,207.00 309.00,209.29 309.00,213.71 C309.00,215.42 307.77,216.59 303.94,218.53 L 298.88 221.09 L 295.57 219.05 C293.75,217.92 291.81,217.00 291.26,217.00 C290.71,217.00 288.35,218.74 286.02,220.87 L 281.79 224.74 L 284.13 228.80 C286.37,232.70 286.40,233.03 284.91,237.11 C283.28,241.59 282.75,242.07 276.75,244.42 C273.19,245.82 273.00,246.13 273.00,250.38 C273.00,255.47 274.38,257.31 279.44,258.98 C281.35,259.61 283.18,261.00 283.52,262.06 C283.86,263.13 284.55,264.00 285.07,264.00 C285.58,264.00 285.91,264.34 285.80,264.75 C285.69,265.16 285.96,266.53 286.38,267.80 C286.97,269.53 286.52,270.94 284.54,273.54 C281.53,277.48 281.94,279.09 287.05,283.39 C290.78,286.53 291.45,286.58 294.73,284.00 C297.84,281.55 298.89,281.53 304.04,283.75 C306.84,284.96 308.25,286.27 308.61,288.00 C308.90,289.38 309.55,291.51 310.05,292.75 ZM 379.16 314.16 C381.58,316.58 381.99,316.52 386.77,313.06 C391.80,309.41 392.48,307.40 390.55,301.86 C388.14,294.94 388.52,288.72 391.59,285.07 C393.02,283.38 394.60,282.25 395.12,282.57 C395.63,282.89 395.93,282.74 395.77,282.24 C395.62,281.73 397.98,277.55 401.00,272.94 L 406.50 264.56 L 407.13 253.53 C407.73,243.06 406.92,235.42 404.86,232.00 C401.71,226.76 398.18,218.50 398.70,217.59 C399.04,216.99 398.99,216.79 398.59,217.15 C398.19,217.51 396.09,215.89 393.93,213.54 C390.92,210.27 390.00,208.46 390.00,205.78 C390.00,202.61 389.77,202.32 387.58,202.74 C385.66,203.11 384.83,202.57 383.59,200.17 C382.73,198.51 381.18,196.87 380.15,196.55 C378.51,196.03 375.93,191.48 374.74,187.01 C374.48,186.04 373.05,185.49 370.72,185.46 C367.10,185.41 367.09,185.41 366.45,190.55 C366.00,194.17 366.56,199.68 368.33,209.10 C369.72,216.47 371.15,225.65 371.52,229.50 C371.88,233.35 372.86,237.95 373.70,239.73 C374.53,241.51 375.18,243.98 375.15,245.23 C374.85,256.57 375.17,267.47 376.09,277.89 C376.70,284.70 376.92,291.64 376.59,293.31 C375.48,298.83 377.12,312.12 379.16,314.16 ZM 324.50 274.91 C307.99,279.38 292.80,268.45 292.80,252.10 C292.80,233.34 310.58,220.84 326.50,228.39 C332.09,231.04 338.33,237.04 339.94,241.32 C341.74,246.09 341.24,256.52 338.98,261.33 C336.22,267.18 329.41,273.58 324.50,274.91 ZM 279.00 188.96 C279.14,189.05 279.27,189.13 279.40,189.22 C281.98,190.87 283.60,191.91 285.11,191.78 C287.74,191.54 290.06,187.76 296.54,177.50 C298.97,173.65 300.97,170.18 300.98,169.78 C300.99,169.39 297.06,167.90 292.25,166.47 C265.62,158.59 228.52,145.44 214.50,138.92 C205.17,134.58 203.21,134.31 202.47,137.28 C201.95,139.32 202.75,140.65 206.98,144.88 C209.80,147.71 213.86,150.91 215.99,151.99 C218.12,153.08 220.12,154.39 220.43,154.89 C220.75,155.40 221.83,155.60 222.84,155.33 C225.24,154.70 233.57,159.77 234.89,162.66 C236.02,165.14 242.76,168.98 244.74,168.28 C245.42,168.04 247.17,168.78 248.63,169.92 C250.08,171.06 251.69,172.00 252.20,172.00 C253.72,172.00 262.00,178.01 262.00,179.11 C262.00,179.66 261.55,179.84 261.00,179.50 C260.45,179.16 260.00,179.12 260.00,179.42 C260.00,180.62 264.80,182.98 268.41,183.55 C270.53,183.89 272.76,184.59 273.38,185.12 C274.00,185.64 276.52,187.37 279.00,188.96 ZM 214.50 495.16 C209.64,497.84 204.40,498.49 203.64,496.50 C203.29,495.59 203.00,494.70 203.00,494.53 C203.00,494.36 204.83,493.48 207.07,492.59 C212.05,490.60 221.56,483.69 222.98,481.03 C225.07,477.14 225.34,470.45 223.53,467.69 C221.56,464.68 222.19,463.00 225.30,463.00 C231.11,463.00 251.59,449.55 258.32,441.31 C261.47,437.46 265.14,430.78 268.43,422.89 L 271.18 416.27 L 273.51 418.60 C276.88,421.97 280.48,422.52 287.42,420.72 C301.36,417.11 306.81,414.83 314.36,409.46 C317.04,407.56 320.08,406.00 321.11,406.00 C325.11,406.00 322.69,408.99 315.51,412.93 C306.75,417.74 304.47,420.47 305.96,424.38 C306.51,425.84 308.02,427.44 309.31,427.93 C312.73,429.23 314.67,432.80 316.35,440.91 C319.21,454.72 320.67,455.55 344.00,456.45 C353.62,456.82 363.98,457.30 367.00,457.51 C370.02,457.73 375.80,458.11 379.83,458.37 C383.86,458.62 387.43,459.10 387.77,459.43 C388.10,459.77 387.66,460.77 386.78,461.64 C385.45,462.98 382.68,463.22 369.84,463.12 C343.25,462.90 323.91,461.55 320.00,459.64 C313.00,456.23 312.76,455.81 311.93,445.78 C311.20,436.94 311.01,436.37 307.91,433.79 C301.09,428.09 291.59,426.71 279.00,429.57 C272.50,431.05 271.96,431.39 269.52,435.56 C262.50,447.54 250.50,458.49 238.36,463.99 C229.19,468.15 227.62,470.10 228.36,476.38 C228.83,480.37 228.56,482.12 227.16,484.26 C225.10,487.39 218.92,492.71 214.50,495.16 ZM 305.62 265.00 L 310.23 269.25 L 317.26 268.75 C323.92,268.27 324.48,268.04 327.70,264.37 C332.57,258.82 333.89,255.34 333.33,249.50 C332.60,241.94 331.16,239.18 326.52,236.46 C321.66,233.61 313.57,233.12 309.20,235.41 C303.98,238.15 299.81,243.52 299.28,248.17 C298.50,255.13 300.41,260.20 305.62,265.00 ZM 216.86 48.92 C213.08,53.89 211.52,54.80 210.65,52.53 C209.76,50.20 211.48,46.60 215.18,43.06 C221.11,37.39 223.41,36.67 233.36,37.31 C241.48,37.84 242.71,37.67 246.76,35.51 C250.23,33.67 251.78,33.35 253.68,34.07 C255.46,34.75 256.52,34.62 257.52,33.62 C258.28,32.86 258.68,32.01 258.40,31.73 C256.37,29.71 304.22,28.58 311.78,30.48 C313.11,30.81 314.83,30.55 315.62,29.90 C316.41,29.25 317.30,28.97 317.61,29.28 C317.93,29.59 319.90,29.24 322.00,28.50 C324.10,27.76 325.99,27.33 326.21,27.54 C326.42,27.76 328.38,28.15 330.55,28.42 C332.87,28.71 335.19,29.75 336.16,30.95 C337.07,32.08 338.30,33.00 338.89,33.00 C339.48,33.00 340.23,34.24 340.56,35.75 C340.90,37.26 341.33,39.03 341.52,39.67 C342.05,41.41 336.52,43.01 333.28,42.06 C331.75,41.61 326.45,39.67 321.50,37.75 C313.66,34.70 310.83,34.15 299.50,33.42 C292.35,32.97 284.48,32.61 282.00,32.63 C273.39,32.69 259.30,34.71 256.41,36.28 C254.81,37.15 252.26,38.13 250.75,38.45 C249.24,38.77 248.00,39.65 248.00,40.40 C248.00,43.50 245.47,44.08 238.75,42.52 C234.27,41.48 230.88,41.27 227.84,41.84 C222.03,42.92 220.85,43.68 216.86,48.92 ZM 381.44 99.78 C378.59,103.86 377.94,102.83 376.42,91.75 C375.85,87.56 375.48,87.00 373.34,87.00 C372.00,87.00 369.79,88.12 368.42,89.49 C363.81,94.10 362.03,93.78 354.15,86.92 C343.43,77.60 344.85,73.48 359.28,71.98 C363.25,71.57 367.24,70.92 368.15,70.54 C370.13,69.73 371.27,66.04 370.02,64.52 C368.71,62.94 370.37,60.82 372.33,61.57 C373.25,61.93 374.00,62.62 374.00,63.11 C374.00,63.60 374.56,64.01 375.25,64.03 C377.10,64.08 380.24,68.74 378.95,69.53 C378.33,69.91 378.26,70.66 378.77,71.34 C379.25,71.98 380.24,74.41 380.98,76.75 C381.72,79.09 382.66,81.00 383.07,81.00 C384.33,81.00 383.46,84.10 381.93,85.06 C380.71,85.84 380.72,85.97 382.00,86.00 C383.22,86.02 383.25,86.19 382.14,86.89 C381.20,87.49 381.12,87.96 381.89,88.43 C383.54,89.45 383.23,97.22 381.44,99.78 ZM 119.55 374.75 C119.57,375.99 119.57,376.96 119.55,376.90 C119.52,376.85 118.54,376.27 117.37,375.62 C113.53,373.49 104.70,361.43 101.07,353.38 C99.37,349.61 97.83,347.81 95.28,346.60 C93.36,345.68 91.58,344.12 91.32,343.12 C91.05,342.09 87.83,339.85 83.80,337.91 C77.23,334.73 76.09,334.50 66.99,334.54 C59.39,334.57 57.34,334.29 57.72,333.28 C58.00,332.57 59.30,331.71 60.61,331.38 C61.92,331.05 63.00,330.33 63.00,329.77 C63.00,329.12 66.04,328.91 71.25,329.18 C80.17,329.65 87.74,332.45 93.50,337.41 C95.15,338.83 96.86,340.00 97.31,340.00 C97.75,340.00 97.86,340.42 97.54,340.93 C97.23,341.44 97.43,342.15 98.00,342.50 C98.57,342.85 98.78,343.55 98.47,344.05 C97.58,345.49 100.01,349.21 101.48,348.65 C102.21,348.37 103.47,348.67 104.28,349.32 C106.02,350.72 116.00,365.54 116.00,366.73 C116.00,367.18 116.79,368.67 117.75,370.03 C118.71,371.39 119.52,373.51 119.55,374.75 ZM 408.91 461.83 C404.33,462.89 391.00,463.50 391.00,462.65 C391.00,462.46 391.90,461.27 393.00,460.00 C394.10,458.73 395.00,457.10 395.00,456.38 C395.00,453.96 398.43,452.99 401.44,454.56 C405.52,456.67 406.80,456.37 409.02,452.75 C410.40,450.52 410.83,448.60 410.40,446.63 C410.02,444.84 410.25,443.47 411.00,443.00 C413.05,441.73 415.95,443.09 416.06,445.36 C416.12,446.54 416.23,449.60 416.31,452.17 C416.39,454.75 416.87,456.58 417.38,456.26 C417.89,455.95 417.98,456.22 417.59,456.86 C417.19,457.51 416.48,457.79 416.00,457.50 C415.53,457.21 414.88,457.80 414.56,458.82 C414.17,460.05 412.28,461.05 408.91,461.83 ZM 201.54 496.80 C201.15,497.18 197.05,497.66 192.42,497.85 C185.22,498.15 184.00,497.97 184.00,496.60 C184.00,495.72 183.66,494.95 183.25,494.89 C182.84,494.83 180.95,494.65 179.07,494.50 C177.18,494.34 175.14,493.54 174.54,492.72 C173.94,491.90 172.56,491.06 171.48,490.86 C168.92,490.37 168.13,485.27 170.47,484.37 C172.76,483.50 180.88,488.04 182.31,491.00 C183.18,492.79 184.74,493.75 187.81,494.40 C191.82,495.25 192.30,495.10 195.34,492.15 C197.13,490.42 199.12,489.00 199.75,489.00 C201.07,489.00 202.61,495.72 201.54,496.80 ZM 367.85 57.57 C368.57,59.16 368.46,59.67 367.40,59.67 C366.63,59.67 366.00,59.27 366.00,58.77 C366.00,58.28 365.63,58.11 365.18,58.39 C364.73,58.67 362.82,57.92 360.93,56.72 C359.04,55.52 354.35,52.95 350.50,51.02 C343.83,47.67 341.56,44.99 343.66,42.98 C344.58,42.09 355.59,46.78 358.01,49.08 C358.83,49.86 361.16,51.62 363.20,52.98 C365.23,54.35 367.32,56.41 367.85,57.57 ZM 307.72 189.67 C312.00,191.36 315.66,192.60 315.86,192.43 C316.05,192.26 315.06,190.18 313.65,187.81 C312.24,185.44 310.31,182.04 309.36,180.25 C307.19,176.18 306.07,176.18 303.30,180.26 C299.24,186.26 299.27,186.33 307.72,189.67 ZM 299.25 68.22 C295.89,71.15 293.65,71.69 290.00,70.45 C284.91,68.72 281.78,61.60 285.75,60.79 C286.84,60.57 288.18,61.52 289.29,63.31 C290.76,65.66 291.34,65.96 292.54,64.97 C293.34,64.30 294.00,62.93 294.00,61.91 C294.00,60.16 294.18,60.17 297.50,62.13 C301.40,64.44 301.84,65.96 299.25,68.22 ZM 325.50 188.88 C324.68,192.76 325.03,192.67 331.75,187.28 C334.09,185.40 336.00,183.40 336.00,182.84 C336.00,181.44 332.06,176.00 331.06,176.00 C330.05,176.00 326.47,184.31 325.50,188.88 ZM 346.93 123.13 C345.56,125.70 341.22,125.36 338.32,122.46 C336.56,120.70 337.75,120.00 342.50,120.00 C347.42,120.00 348.28,120.61 346.93,123.13 ZM 273.00 413.44 C273.00,414.30 272.55,415.00 272.00,415.00 C271.45,415.00 271.00,414.58 271.00,414.06 C271.00,413.54 271.45,412.84 272.00,412.50 C272.55,412.16 273.00,412.58 273.00,413.44 Z" fill="rgb(26,54,76)"/>
<path d="M 177.50 474.49 C178.60,472.29 179.95,470.31 180.50,470.08 C181.05,469.86 182.62,468.47 184.00,467.01 C185.38,465.54 188.03,464.04 189.90,463.66 C193.36,462.98 196.00,461.38 196.00,459.99 C196.00,459.56 194.20,457.04 192.00,454.38 C189.80,451.71 188.00,449.05 188.00,448.46 C188.00,447.88 186.90,445.17 185.56,442.45 C180.75,432.68 178.34,423.12 177.53,410.50 C177.39,408.30 176.95,403.12 176.56,399.00 C176.16,394.74 176.32,388.04 176.94,383.50 C177.54,379.10 178.44,370.84 178.94,365.16 C180.19,350.97 182.06,340.93 183.93,338.28 C185.80,335.64 190.14,335.34 197.53,337.35 C218.96,343.17 226.66,344.96 234.50,345.97 C243.63,347.13 258.54,349.56 265.09,350.95 C269.26,351.83 282.49,352.50 295.84,352.50 C304.05,352.50 305.38,352.25 306.84,350.45 C314.14,341.44 316.67,339.20 320.31,338.56 C323.97,337.91 324.33,338.11 329.18,343.42 C331.97,346.46 335.02,349.19 335.96,349.49 C336.90,349.78 339.60,349.35 341.96,348.51 C344.32,347.68 347.57,347.00 349.19,347.00 C350.81,347.00 353.04,346.51 354.16,345.91 C356.67,344.57 361.00,345.55 361.00,347.46 C361.00,348.24 361.45,349.16 362.01,349.51 C363.59,350.48 367.00,349.03 367.00,347.38 C367.00,344.77 371.74,341.23 374.52,341.76 C377.09,342.25 381.00,346.30 381.00,348.46 C381.00,349.12 382.17,350.74 383.60,352.08 C386.63,354.91 389.72,360.59 390.44,364.65 C390.72,366.22 391.60,369.67 392.39,372.32 C393.68,376.59 393.67,377.54 392.28,380.82 C391.41,382.84 390.34,388.71 389.89,393.86 C389.36,400.04 388.48,404.12 387.31,405.86 C385.24,408.95 383.00,414.51 382.51,417.83 C382.15,420.20 379.43,422.91 377.35,422.97 C376.72,422.99 375.27,424.58 374.13,426.50 C373.00,428.42 371.46,430.00 370.71,430.00 C369.00,430.00 364.56,434.63 365.67,435.24 C366.13,435.49 372.38,435.74 379.57,435.80 C386.75,435.86 393.86,436.38 395.37,436.95 C396.87,437.52 399.40,438.22 400.99,438.50 C403.47,438.93 403.85,438.70 403.71,436.86 C403.60,435.38 402.55,434.26 400.48,433.47 C403.58,434.43 406.41,435.96 409.84,438.28 C414.61,441.51 420.00,449.12 420.00,452.61 C420.00,457.10 418.33,459.15 411.68,461.02 C413.33,460.39 414.29,459.66 414.56,458.82 C414.88,457.80 415.53,457.21 416.00,457.50 C416.48,457.79 417.19,457.51 417.59,456.86 C417.98,456.22 417.89,455.95 417.38,456.26 C416.87,456.58 416.39,454.75 416.31,452.17 C416.23,449.60 416.12,446.54 416.06,445.36 C415.95,443.09 413.05,441.73 411.00,443.00 C410.25,443.47 410.02,444.84 410.40,446.63 C410.83,448.60 410.40,450.52 409.02,452.75 C406.80,456.37 405.52,456.67 401.44,454.56 C398.43,452.99 395.00,453.96 395.00,456.38 C395.00,457.10 394.10,458.73 393.00,460.00 C391.90,461.27 391.00,462.46 391.00,462.65 C391.00,463.39 400.97,463.03 406.62,462.23 C406.34,462.29 406.05,462.35 405.76,462.42 C396.88,464.25 384.75,464.35 352.22,462.78 C357.61,462.95 363.52,463.06 369.84,463.12 C382.68,463.22 385.45,462.98 386.78,461.64 C387.66,460.77 388.10,459.77 387.77,459.43 C387.43,459.10 383.86,458.62 379.83,458.37 C375.80,458.11 370.02,457.73 367.00,457.51 C363.98,457.30 353.62,456.82 344.00,456.45 C320.67,455.55 319.21,454.72 316.35,440.91 C314.67,432.80 312.73,429.23 309.31,427.93 C308.02,427.44 306.51,425.84 305.96,424.38 C304.47,420.47 306.75,417.74 315.51,412.93 C322.69,408.99 325.11,406.00 321.11,406.00 C320.08,406.00 317.04,407.56 314.36,409.46 C306.81,414.83 301.36,417.11 287.42,420.72 C280.48,422.52 276.88,421.97 273.51,418.60 L 271.18 416.27 L 268.43 422.89 C265.14,430.78 261.47,437.46 258.32,441.31 C251.59,449.55 231.11,463.00 225.30,463.00 C222.19,463.00 221.56,464.68 223.53,467.69 C225.34,470.45 225.07,477.14 222.98,481.03 C221.56,483.69 212.05,490.60 207.07,492.59 C204.83,493.48 203.00,494.36 203.00,494.53 C203.00,494.70 203.29,495.59 203.64,496.50 C203.85,497.05 204.39,497.39 205.17,497.56 C203.52,497.76 201.63,497.93 199.50,498.09 C183.68,499.23 183.62,499.23 179.82,496.65 C177.92,495.36 175.17,494.01 173.70,493.64 C170.51,492.84 168.00,488.45 168.00,483.67 C168.00,476.18 174.22,467.31 182.95,462.33 C180.37,464.35 178.00,466.90 178.00,468.05 C178.00,469.38 177.44,469.99 176.38,469.79 C174.03,469.37 170.89,474.00 171.64,476.80 C172.55,480.17 175.17,479.13 177.50,474.49 ZM 203.50 459.27 C213.24,460.60 222.03,459.95 229.16,457.37 C248.80,450.29 261.68,435.66 267.49,413.84 C268.89,408.56 271.34,401.87 272.93,398.96 L 275.83 393.66 L 276.54 398.44 C276.94,401.07 276.82,406.88 276.28,411.36 C275.74,415.84 275.45,419.68 275.64,419.91 C276.20,420.57 286.77,418.00 296.50,414.84 C308.28,411.01 322.31,402.79 334.25,392.71 C337.41,390.05 340.00,388.32 340.00,388.87 C340.00,389.43 339.61,390.12 339.13,390.42 C338.65,390.72 337.05,393.42 335.58,396.42 C331.69,404.39 325.01,411.24 315.91,416.61 C311.51,419.21 307.70,421.68 307.44,422.10 C307.18,422.51 307.88,423.14 308.99,423.50 C311.91,424.42 316.85,428.81 318.42,431.87 C319.16,433.32 320.07,436.98 320.44,440.00 C321.69,450.29 321.91,450.82 325.32,451.86 C327.07,452.40 338.85,453.13 351.50,453.49 C364.15,453.86 377.83,454.53 381.91,454.98 C391.04,456.01 394.38,454.93 392.81,451.48 C391.64,448.91 387.56,445.63 384.23,444.57 C380.85,443.50 381.56,442.00 385.45,442.00 C388.72,442.00 389.87,442.66 403.46,452.41 C405.27,453.71 408.00,452.39 408.00,450.22 C408.00,448.28 404.37,444.44 399.77,441.53 C397.56,440.13 395.87,439.93 390.89,440.51 C386.06,441.07 384.91,440.96 385.52,439.96 C386.15,438.96 382.77,438.85 368.75,439.42 C357.27,439.89 350.99,439.79 350.58,439.13 C350.24,438.58 353.00,436.45 356.73,434.42 C367.00,428.80 378.41,417.24 382.80,408.00 C386.14,400.97 386.37,399.86 386.43,390.25 C386.50,380.04 386.97,378.43 388.93,381.75 C390.75,384.83 391.80,381.39 390.79,375.68 C389.16,366.51 375.70,342.27 372.77,343.24 C372.22,343.43 370.98,345.58 370.01,348.04 C363.65,364.19 352.76,376.02 357.79,361.32 C358.88,358.12 360.11,353.52 360.50,351.10 C361.20,346.83 361.16,346.73 358.86,347.36 C357.56,347.72 351.59,349.20 345.58,350.65 L 334.66 353.29 L 331.58 349.89 C329.89,348.02 327.06,344.69 325.31,342.49 L 322.12 338.50 L 313.13 347.41 L 304.15 356.31 L 291.47 355.64 C260.91,354.00 222.71,348.01 200.12,341.30 C195.38,339.89 190.82,338.67 189.98,338.57 C189.15,338.48 187.88,338.04 187.17,337.60 C186.45,337.16 185.69,336.98 185.47,337.19 C185.25,337.41 183.85,346.12 182.36,356.54 C180.14,371.98 179.63,379.22 179.60,395.50 C179.55,417.58 180.75,425.49 186.00,437.88 C189.84,446.92 199.50,458.73 203.50,459.27 ZM 192.72 318.41 C190.64,317.04 188.18,314.34 187.25,312.40 C184.88,307.42 186.86,303.89 192.67,302.74 C199.56,301.38 198.83,296.27 191.50,294.58 C181.09,292.18 155.89,277.38 154.44,272.82 C154.10,271.75 151.81,268.60 149.35,265.83 C144.22,260.06 143.81,259.13 142.01,249.25 C140.85,242.94 140.88,241.78 142.19,240.25 C143.02,239.29 144.28,236.25 144.99,233.50 C145.70,230.75 148.47,224.66 151.14,219.97 C153.81,215.27 156.00,210.95 156.00,210.37 C156.00,209.78 157.43,207.32 159.19,204.90 C160.94,202.48 162.44,199.15 162.52,197.50 C162.59,195.85 163.18,194.44 163.83,194.38 C164.47,194.31 165.59,194.19 166.32,194.12 C167.04,194.06 168.64,192.21 169.87,190.02 C171.10,187.83 172.88,185.47 173.82,184.77 C174.76,184.07 176.31,182.28 177.26,180.79 C181.34,174.41 189.92,168.92 197.43,167.91 C209.84,166.24 226.19,173.18 231.35,182.31 C232.53,184.40 234.96,188.67 236.75,191.81 C242.89,202.57 243.99,205.70 245.17,215.80 C246.21,224.66 246.14,226.58 244.57,232.37 C243.60,235.97 242.17,239.44 241.40,240.08 C240.63,240.72 240.00,241.76 240.00,242.40 C240.00,243.03 238.76,244.69 237.25,246.09 C235.74,247.48 233.74,249.58 232.81,250.75 C230.60,253.54 223.42,255.75 221.16,254.34 C218.41,252.62 218.54,247.30 221.43,242.93 C225.57,236.67 224.45,235.17 219.90,240.89 C217.65,243.72 214.95,246.49 213.90,247.05 C211.47,248.35 211.50,250.59 214.00,255.50 C215.10,257.66 216.00,260.09 216.00,260.91 C216.00,261.72 217.02,263.99 218.27,265.95 C222.47,272.50 223.03,273.48 226.02,279.50 C230.08,287.68 230.17,295.78 226.28,303.27 C222.02,311.48 219.40,314.93 215.05,318.08 C211.45,320.69 210.24,320.99 203.76,320.94 C197.78,320.89 195.83,320.45 192.72,318.41 ZM 197.31 316.83 C202.61,318.26 210.24,317.63 214.02,315.44 C222.08,310.77 227.16,297.91 225.02,287.61 C223.71,281.30 215.38,264.78 209.71,257.24 C205.62,251.82 198.35,245.85 193.67,244.06 C189.36,242.43 190.57,241.00 196.25,241.01 C200.00,241.02 202.75,241.74 205.88,243.53 C210.99,246.45 211.20,246.35 217.32,238.07 C225.71,226.71 229.94,222.00 231.74,222.00 C235.14,222.00 230.91,235.60 224.80,244.25 C222.43,247.61 223.13,251.04 226.03,250.28 C227.12,250.00 228.00,249.41 228.00,248.97 C228.00,248.54 230.00,247.21 232.45,246.02 C236.32,244.15 237.19,243.12 239.05,238.18 C241.68,231.22 242.59,219.49 241.13,211.65 C239.65,203.77 232.27,188.59 227.08,182.77 C221.70,176.73 210.12,170.81 202.71,170.30 C190.35,169.47 183.58,175.38 164.94,203.30 C154.16,219.44 150.06,227.25 145.90,239.50 C143.35,247.04 142.96,250.60 145.12,246.74 C147.18,243.06 147.89,245.24 147.30,253.50 C146.87,259.58 147.03,262.00 147.85,262.00 C148.48,262.00 149.00,260.76 149.01,259.25 L 149.01 256.50 L 150.38 259.12 C157.33,272.44 171.31,283.55 190.00,290.58 C197.28,293.32 200.32,294.37 201.60,296.49 C202.52,298.01 202.53,300.08 202.55,303.72 C202.56,304.00 202.56,304.29 202.56,304.59 C202.63,314.34 201.70,315.10 196.56,309.50 C192.79,305.38 190.00,304.90 190.00,308.37 C190.00,311.70 193.56,315.82 197.31,316.83 ZM 119.55 374.75 C119.52,373.51 118.71,371.39 117.75,370.03 C116.79,368.67 116.00,367.18 116.00,366.73 C116.00,366.27 114.47,363.71 112.50,360.68 C112.91,361.28 113.32,361.89 113.73,362.50 C124.38,378.37 131.98,384.24 145.48,387.01 C150.28,388.00 152.82,387.98 158.48,386.91 C163.01,386.06 165.74,385.58 167.67,383.31 C166.39,384.97 164.92,386.00 163.55,386.00 C162.70,386.00 162.00,386.46 162.00,387.02 C162.00,388.70 156.80,390.29 155.93,388.89 C155.42,388.06 153.35,387.89 149.14,388.33 C145.56,388.70 142.85,388.56 142.49,387.98 C141.69,386.69 127.57,379.82 126.40,380.16 C125.91,380.31 124.51,379.88 123.31,379.21 C121.76,378.35 120.93,378.31 120.45,379.08 C119.25,381.02 125.27,386.00 133.71,390.04 C140.84,393.46 142.89,394.00 148.81,394.00 C152.58,394.00 158.29,393.47 161.49,392.83 C167.26,391.67 167.34,391.69 169.52,394.43 C171.11,396.41 171.92,399.18 172.38,404.22 L 173.04 411.24 L 168.45 416.61 C163.09,422.88 154.25,428.17 143.17,431.72 C133.61,434.79 126.48,434.43 121.99,430.64 C119.42,428.48 118.31,428.21 113.76,428.63 C110.03,428.97 105.60,428.35 98.50,426.50 C93.00,425.06 85.82,423.21 82.54,422.37 C79.26,421.54 73.75,419.28 70.29,417.35 C64.56,414.14 64.00,413.54 64.00,410.54 C64.00,408.73 64.68,406.68 65.50,406.00 C67.52,404.33 67.39,402.28 65.20,401.11 C60.62,398.66 51.29,387.49 47.25,379.61 C43.60,372.51 42.86,370.04 42.33,363.18 C41.54,352.90 43.04,347.20 47.61,343.03 C51.07,339.89 51.59,338.48 50.15,336.22 C49.45,335.10 48.25,335.13 46.75,336.21 C51.89,331.36 60.97,327.98 68.86,328.02 C72.86,328.05 78.23,329.43 83.21,331.49 C79.58,330.18 75.57,329.41 71.25,329.18 C66.04,328.91 63.00,329.12 63.00,329.77 C63.00,330.33 61.92,331.05 60.61,331.38 C59.30,331.71 58.00,332.57 57.72,333.28 C57.34,334.29 59.39,334.57 66.99,334.54 C76.09,334.50 77.23,334.73 83.80,337.91 C87.83,339.85 91.05,342.09 91.32,343.12 C91.58,344.12 93.36,345.68 95.28,346.60 C97.83,347.81 99.37,349.61 101.07,353.38 C104.70,361.43 113.53,373.49 117.37,375.62 C118.54,376.27 119.52,376.85 119.55,376.90 C119.57,376.96 119.57,375.99 119.55,374.75 ZM 130.83 429.58 C136.31,432.37 157.45,423.31 165.85,414.57 L 169.75 410.50 L 169.13 403.00 C168.52,395.73 168.42,395.51 166.00,395.79 C164.62,395.94 158.77,396.16 153.00,396.26 C143.63,396.44 141.73,396.16 135.31,393.66 C131.36,392.13 126.30,389.55 124.06,387.93 C121.83,386.31 120.00,385.29 120.00,385.65 C120.00,386.01 119.10,385.50 118.00,384.50 C116.90,383.50 116.00,382.25 116.00,381.70 C116.00,381.16 114.03,378.41 111.61,375.58 C109.20,372.76 104.85,366.41 101.94,361.47 C92.81,346.00 84.11,339.40 70.39,337.54 C56.46,335.66 46.00,344.54 46.00,358.24 C46.00,361.45 46.67,365.67 47.49,367.64 C48.31,369.60 48.72,371.65 48.39,372.18 C48.06,372.71 49.19,375.98 50.90,379.44 C54.01,385.76 55.78,387.64 70.29,399.94 C74.46,403.49 77.65,406.75 77.38,407.19 C77.11,407.64 75.22,408.03 73.19,408.07 C71.16,408.11 68.64,408.48 67.58,408.89 C65.85,409.57 65.99,409.89 69.08,412.21 C75.91,417.33 88.91,422.00 96.35,422.00 C97.84,422.00 100.68,422.67 102.65,423.50 C106.57,425.14 117.80,425.43 124.77,424.09 C128.93,423.28 129.03,423.32 128.77,425.83 C128.58,427.66 129.16,428.73 130.83,429.58 ZM 216.86 48.92 C220.85,43.68 222.03,42.92 227.84,41.84 C230.88,41.27 234.27,41.48 238.75,42.52 C245.47,44.08 248.00,43.50 248.00,40.40 C248.00,39.65 249.24,38.77 250.75,38.45 C252.26,38.13 254.81,37.15 256.41,36.28 C259.30,34.71 273.39,32.69 282.00,32.63 C284.48,32.61 292.35,32.97 299.50,33.42 C310.83,34.15 313.66,34.70 321.50,37.75 C326.45,39.67 331.75,41.61 333.28,42.06 C336.52,43.01 342.05,41.41 341.52,39.67 C341.34,39.06 340.94,37.43 340.61,35.97 C340.64,36.08 340.67,36.19 340.69,36.29 C341.15,38.50 343.02,40.12 349.70,44.06 C350.97,44.81 352.22,45.56 353.37,46.25 C349.33,44.26 344.27,42.39 343.66,42.98 C341.56,44.99 343.83,47.67 350.50,51.02 C354.35,52.95 359.04,55.52 360.93,56.72 C362.82,57.92 364.73,58.67 365.18,58.39 C365.63,58.11 366.00,58.28 366.00,58.77 C366.00,59.27 366.63,59.67 367.40,59.67 C368.46,59.67 368.57,59.16 367.85,57.57 C367.56,56.93 366.80,56.03 365.84,55.11 C366.56,55.68 367.31,56.26 368.07,56.85 C371.16,59.26 373.87,61.78 376.12,64.32 C375.81,64.14 375.52,64.04 375.25,64.03 C374.56,64.01 374.00,63.60 374.00,63.11 C374.00,62.62 373.25,61.93 372.33,61.57 C370.37,60.82 368.71,62.94 370.02,64.52 C370.83,65.50 370.64,67.39 369.87,68.83 C368.02,65.86 340.32,47.34 339.22,48.45 C338.97,48.70 338.15,48.29 337.41,47.55 C336.66,46.80 333.00,45.04 329.28,43.63 C306.78,35.11 275.61,33.49 256.66,39.87 C251.80,41.50 247.60,43.07 247.32,43.35 C247.04,43.62 247.27,44.66 247.82,45.65 C248.92,47.62 247.69,51.00 245.88,51.00 C245.30,51.00 244.06,50.06 243.13,48.91 C240.67,45.87 232.22,43.90 227.18,45.18 C221.37,46.66 218.75,49.90 218.25,56.24 C218.01,59.13 218.30,62.72 218.87,64.21 C220.08,67.32 226.16,71.66 230.37,72.40 C234.27,73.09 234.43,73.42 232.41,76.50 C230.99,78.67 230.07,79.10 227.58,78.74 C225.88,78.50 223.79,77.99 222.92,77.61 C220.16,76.40 217.01,86.19 210.62,115.82 L 208.18 127.14 L 211.31 129.04 C213.03,130.09 216.71,131.83 219.47,132.90 C256.10,147.13 270.84,152.28 299.50,160.88 C308.07,163.45 307.80,163.26 311.94,170.00 C313.79,173.02 316.25,176.96 317.41,178.74 C318.56,180.53 319.59,181.99 319.69,181.99 C319.80,182.00 321.36,178.13 323.15,173.40 C326.54,164.49 327.59,163.25 336.19,157.99 C340.86,155.13 344.84,150.50 343.64,149.31 C343.29,148.96 339.52,149.13 335.25,149.69 C330.99,150.25 327.38,150.61 327.23,150.50 C327.08,150.38 327.21,149.61 327.53,148.78 C328.16,147.15 330.22,146.04 339.43,142.37 C342.70,141.07 346.30,139.16 347.43,138.13 C348.57,137.10 350.17,136.01 351.00,135.71 C351.83,135.40 351.07,135.12 349.32,135.08 C345.65,134.99 342.00,131.14 342.00,127.37 C342.00,125.18 341.60,125.00 336.75,124.99 C329.87,124.99 324.75,123.50 321.14,120.46 C319.53,119.11 317.26,118.00 316.11,118.00 C312.93,118.00 313.45,114.32 317.11,110.90 C321.66,106.65 323.75,107.26 323.10,112.66 C323.02,113.30 324.15,114.76 325.61,115.91 C327.68,117.53 329.69,118.00 334.63,118.00 C338.14,118.00 341.00,117.61 341.00,117.14 C341.00,116.66 343.51,115.48 346.58,114.52 C354.44,112.05 356.70,109.70 358.88,101.77 L 360.72 95.03 L 355.91 91.94 C349.43,87.78 344.00,81.63 344.00,78.43 C344.00,71.87 348.66,69.47 361.25,69.56 C365.23,69.59 368.60,69.44 369.64,69.21 C369.24,69.82 368.73,70.30 368.15,70.54 C367.24,70.92 363.25,71.57 359.28,71.98 C344.85,73.48 343.43,77.60 354.15,86.92 C362.03,93.78 363.81,94.10 368.42,89.49 C369.79,88.12 372.00,87.00 373.34,87.00 C375.48,87.00 375.85,87.56 376.42,91.75 C377.94,102.83 378.59,103.86 381.44,99.78 C383.23,97.22 383.54,89.45 381.89,88.43 C381.12,87.96 381.20,87.49 382.14,86.89 C383.25,86.19 383.22,86.02 382.00,86.00 C380.72,85.97 380.71,85.84 381.93,85.06 C382.87,84.47 383.55,83.08 383.66,82.09 C383.82,84.39 383.92,87.01 383.95,89.50 C384.06,101.02 382.31,109.00 377.98,116.68 C377.83,116.96 377.66,117.24 377.49,117.54 C378.94,114.94 379.48,112.84 379.20,110.94 C378.64,107.07 377.09,107.61 374.53,112.57 C372.72,116.06 372.03,116.53 368.40,116.80 C364.32,117.10 364.30,117.09 363.40,112.81 C362.30,107.58 360.01,106.79 358.15,111.00 C356.54,114.66 357.22,117.00 359.89,117.00 C362.84,117.00 364.47,117.69 364.80,119.16 C364.55,118.29 363.76,117.73 362.45,117.40 C361.05,117.05 359.81,116.93 359.70,117.13 C358.59,119.06 356.23,127.56 356.62,128.19 C356.85,128.57 357.14,128.81 357.47,128.93 C356.79,128.99 355.98,129.00 354.96,129.00 C349.65,129.00 349.21,129.43 351.40,132.56 C353.69,135.82 352.25,139.82 347.79,142.63 C344.76,144.54 344.02,145.53 344.62,146.81 C345.82,149.40 345.90,157.34 344.75,158.77 C343.12,160.79 344.79,161.50 346.82,159.66 L 346.85 159.64 C346.71,159.79 346.56,159.95 346.40,160.12 C345.36,161.28 342.48,163.60 340.00,165.28 C339.41,165.67 338.85,166.06 338.32,166.42 C338.76,166.06 339.18,165.68 339.52,165.34 C340.97,163.88 340.98,163.56 339.62,162.19 C338.25,160.82 337.65,160.96 333.80,163.53 C328.63,166.98 327.00,168.80 327.00,171.15 C327.00,172.97 323.54,178.60 320.64,181.50 C319.16,182.99 318.93,182.99 318.39,181.57 C318.06,180.71 317.21,180.00 316.51,180.00 C315.09,180.00 311.15,175.15 308.70,170.39 C307.81,168.68 305.84,166.82 304.30,166.26 C297.55,163.79 285.17,160.08 281.51,159.41 C279.31,159.01 274.91,157.45 271.73,155.95 C266.93,153.68 257.49,151.09 244.28,148.42 C243.06,148.18 241.26,147.12 240.28,146.07 C239.30,145.02 237.15,143.84 235.50,143.46 C233.85,143.07 230.02,141.45 227.00,139.87 C223.98,138.29 219.02,136.10 216.00,134.99 C208.69,132.33 208.03,131.83 207.33,128.42 C206.52,124.42 206.66,122.58 208.43,114.50 C211.55,100.19 213.00,93.09 213.56,89.35 C214.30,84.35 216.19,79.00 217.20,79.00 C217.64,79.00 218.00,78.38 218.00,77.62 C218.00,76.86 218.68,75.68 219.50,75.00 C221.68,73.19 221.37,72.24 218.00,70.50 C216.35,69.65 215.00,69.24 215.00,69.60 C215.00,69.95 214.25,69.63 213.34,68.87 C211.82,67.62 211.80,67.69 213.06,69.72 C213.46,70.36 213.70,70.96 213.72,71.84 L 212.01 68.80 C209.08,63.58 208.32,54.68 210.40,49.81 C210.62,49.29 210.89,48.76 211.21,48.22 C210.41,49.86 210.20,51.36 210.65,52.53 C211.52,54.80 213.08,53.89 216.86,48.92 ZM 379.16 314.16 C377.12,312.12 375.48,298.83 376.59,293.31 C376.92,291.64 376.70,284.70 376.09,277.89 C375.17,267.47 374.85,256.57 375.15,245.23 C375.18,243.98 374.53,241.51 373.70,239.73 C372.86,237.95 371.88,233.35 371.52,229.50 C371.15,225.65 369.72,216.47 368.33,209.10 C366.56,199.68 366.00,194.17 366.45,190.55 C367.09,185.41 367.10,185.41 370.72,185.46 C373.05,185.49 374.48,186.04 374.74,187.01 C375.93,191.48 378.51,196.03 380.15,196.55 C381.18,196.87 382.73,198.51 383.59,200.17 C384.83,202.57 385.66,203.11 387.58,202.74 C389.77,202.32 390.00,202.61 390.00,205.78 C390.00,208.46 390.92,210.27 393.93,213.54 C396.09,215.89 398.19,217.51 398.59,217.15 C398.99,216.79 399.04,216.99 398.70,217.59 C398.18,218.50 401.71,226.76 404.86,232.00 C406.92,235.42 407.73,243.06 407.13,253.53 L 406.50 264.56 L 401.00 272.94 C397.98,277.55 395.62,281.73 395.77,282.24 C395.93,282.74 395.63,282.89 395.12,282.57 C394.60,282.25 393.02,283.38 391.59,285.07 C388.52,288.72 388.14,294.94 390.55,301.86 C392.48,307.40 391.80,309.41 386.77,313.06 C381.99,316.52 381.58,316.58 379.16,314.16 ZM 380.57 291.86 C381.23,303.02 381.43,303.99 382.86,302.57 C383.91,301.52 384.57,298.56 384.84,293.75 C385.17,288.00 385.69,286.08 387.38,284.47 C395.18,277.01 401.30,266.58 403.07,257.76 C403.65,254.87 404.58,251.55 405.15,250.39 C408.63,243.30 392.53,214.64 371.51,190.50 C367.26,185.62 367.21,186.14 370.41,201.74 C371.74,208.21 373.58,219.31 374.50,226.41 C375.43,233.51 376.42,239.92 376.70,240.66 C377.03,241.51 378.89,242.00 381.83,242.00 L 386.45 242.00 L 383.97 243.69 C377.28,248.26 376.84,249.36 377.52,259.86 C377.87,265.16 378.54,271.77 379.00,274.54 C379.47,277.32 380.18,285.11 380.57,291.86 ZM 305.62 265.00 C300.41,260.20 298.50,255.13 299.28,248.17 C299.81,243.52 303.98,238.15 309.20,235.41 C313.57,233.12 321.66,233.61 326.52,236.46 C331.16,239.18 332.60,241.94 333.33,249.50 C333.89,255.34 332.57,258.82 327.70,264.37 C324.48,268.04 323.92,268.27 317.26,268.75 L 310.23 269.25 ZM 309.19 263.98 C316.26,268.28 325.94,265.55 329.42,258.25 C332.79,251.18 330.05,240.63 324.04,237.52 C319.89,235.38 313.16,235.61 309.19,238.02 C305.67,240.17 302.04,246.76 302.04,251.00 C302.04,255.24 305.67,261.83 309.19,263.98 ZM 187.13 488.66 C189.30,491.27 192.05,489.92 198.62,483.02 C202.27,479.18 205.60,476.25 206.02,476.51 C206.43,476.77 206.17,478.67 205.43,480.74 C202.25,489.66 204.54,491.23 212.64,485.66 C217.33,482.44 221.95,476.15 221.98,472.94 C222.02,469.59 219.31,467.75 212.42,466.41 C202.96,464.58 196.48,464.68 192.20,466.71 C187.12,469.12 179.61,476.53 180.33,478.42 C180.65,479.25 180.41,480.24 179.80,480.62 C179.07,481.07 178.97,480.82 179.49,479.90 C180.04,478.95 179.96,478.82 179.26,479.50 C178.69,480.05 177.91,481.55 177.52,482.84 C176.91,484.84 177.63,484.51 182.39,480.63 C185.46,478.13 188.88,475.60 189.99,475.01 C192.29,473.77 192.71,475.16 190.57,476.94 C188.22,478.89 185.82,487.08 187.13,488.66 ZM 298.72 72.54 C297.25,74.24 295.10,75.31 292.41,75.67 C288.84,76.15 287.86,75.82 284.71,73.05 C282.72,71.30 280.79,68.92 280.42,67.74 C280.05,66.57 278.79,64.81 277.62,63.82 L 275.50 62.03 L 278.00 60.04 C285.71,53.90 293.59,53.28 300.17,58.30 C304.00,61.22 308.94,67.98 308.98,70.38 C308.99,70.86 307.19,70.97 304.97,70.61 C301.45,70.05 300.65,70.30 298.72,72.54 ZM 201.54 496.80 C202.61,495.72 201.07,489.00 199.75,489.00 C199.12,489.00 197.13,490.42 195.34,492.15 C192.30,495.10 191.82,495.25 187.81,494.40 C184.74,493.75 183.18,492.79 182.31,491.00 C180.88,488.04 172.76,483.50 170.47,484.37 C168.13,485.27 168.92,490.37 171.48,490.86 C172.56,491.06 173.94,491.90 174.54,492.72 C175.14,493.54 177.18,494.34 179.07,494.50 C180.95,494.65 182.84,494.83 183.25,494.89 C183.66,494.95 184.00,495.72 184.00,496.60 C184.00,497.97 185.22,498.15 192.42,497.85 C197.05,497.66 201.15,497.18 201.54,496.80 ZM 366.65 112.17 C369.14,114.92 369.89,114.48 372.48,108.75 C375.15,102.83 377.03,88.00 375.12,88.00 C374.50,88.00 374.00,88.34 373.99,88.75 C373.99,89.16 372.46,90.54 370.60,91.81 C368.13,93.49 366.91,95.31 366.10,98.50 C364.52,104.77 364.74,110.05 366.65,112.17 ZM 299.25 68.22 C301.84,65.96 301.40,64.44 297.50,62.13 C294.18,60.17 294.00,60.16 294.00,61.91 C294.00,62.10 293.98,62.30 293.93,62.51 C293.93,61.65 293.43,60.77 292.45,59.96 C291.18,58.90 290.64,58.93 289.45,60.12 C288.49,61.08 288.27,61.58 288.83,62.63 C287.82,61.29 286.69,60.60 285.75,60.79 C281.78,61.60 284.91,68.72 290.00,70.45 C293.65,71.69 295.89,71.15 299.25,68.22 ZM 241.82 60.45 C241.65,60.60 240.27,61.01 238.77,61.37 C236.55,61.91 235.31,61.37 232.15,58.51 C228.87,55.56 227.76,55.10 225.13,55.62 C221.41,56.37 221.13,55.17 224.31,52.17 C227.33,49.34 232.84,49.30 236.39,52.09 C238.81,54.00 242.60,59.82 241.82,60.45 ZM 339.42 33.27 C339.24,33.10 339.06,33.00 338.89,33.00 C338.30,33.00 337.07,32.08 336.16,30.95 C335.19,29.75 332.87,28.71 330.55,28.42 C328.38,28.15 326.42,27.76 326.21,27.54 C325.99,27.33 324.10,27.76 322.00,28.50 C319.90,29.24 317.93,29.59 317.61,29.28 C317.30,28.97 316.41,29.25 315.62,29.90 C314.83,30.55 313.11,30.81 311.78,30.48 C304.22,28.58 256.37,29.71 258.40,31.73 C258.68,32.01 258.28,32.86 257.52,33.62 C256.52,34.62 255.46,34.75 253.68,34.07 C252.38,33.57 251.24,33.57 249.55,34.21 C253.42,32.38 258.13,30.92 261.50,30.52 C264.80,30.13 268.02,29.38 268.66,28.86 C269.93,27.82 301.73,28.33 308.76,29.50 C312.11,30.06 314.02,29.74 317.72,28.00 C321.43,26.26 323.69,25.88 328.39,26.22 C333.70,26.61 334.66,27.02 337.23,30.08 C338.02,31.01 338.79,32.16 339.42,33.27 ZM 206.98 144.88 C205.56,143.46 204.52,142.37 203.80,141.46 C206.76,143.79 214.47,148.52 234.00,160.34 C240.32,164.17 246.77,168.36 248.33,169.65 C248.90,170.12 249.49,170.57 250.04,170.94 C249.58,170.64 249.09,170.29 248.63,169.92 C247.17,168.78 245.42,168.04 244.74,168.28 C242.76,168.98 236.02,165.14 234.89,162.66 C233.57,159.77 225.24,154.70 222.84,155.33 C221.83,155.60 220.75,155.40 220.43,154.89 C220.12,154.39 218.12,153.08 215.99,151.99 C213.86,150.91 209.80,147.71 206.98,144.88 ZM 348.63 126.75 C349.03,128.24 349.99,129.00 351.50,129.00 C353.34,129.00 353.97,128.18 354.88,124.56 C356.74,117.16 356.61,116.89 352.01,118.82 C347.92,120.54 347.33,121.91 348.63,126.75 ZM 346.93 123.13 C348.28,120.61 347.42,120.00 342.50,120.00 C337.75,120.00 336.56,120.70 338.32,122.46 C341.22,125.36 345.56,125.70 346.93,123.13 ZM 381.67 310.33 C383.04,311.71 385.73,310.92 388.05,308.45 C391.39,304.89 389.03,303.46 384.37,306.21 C381.00,308.20 380.42,309.08 381.67,310.33 ZM 55.89 402.15 C55.90,402.74 55.42,403.00 54.50,403.00 C53.67,403.00 53.00,403.81 53.00,404.80 C53.00,405.79 52.52,407.08 51.93,407.67 C51.26,408.34 52.99,410.73 55.85,413.49 C52.58,410.77 49.78,408.05 47.99,405.75 L 45.85 403.00 L 50.93 403.00 C53.53,403.00 55.44,402.66 55.89,402.15 ZM 262.00 179.11 C262.00,178.50 259.49,176.40 256.97,174.64 C257.15,174.76 257.32,174.88 257.50,175.00 C259.90,176.65 262.15,178.00 262.50,178.00 C263.06,178.00 270.42,182.83 273.12,184.94 C272.27,184.44 270.29,183.85 268.41,183.55 C264.80,182.98 260.00,180.62 260.00,179.42 C260.00,179.12 260.45,179.16 261.00,179.50 C261.55,179.84 262.00,179.66 262.00,179.11 ZM 228.21 482.11 C228.66,480.68 228.67,479.02 228.36,476.38 C227.89,472.44 228.34,470.20 231.00,468.06 L 231.00 471.94 C231.00,475.39 230.02,478.84 228.21,482.11 ZM 379.10 68.08 C380.99,70.78 382.30,73.44 382.94,75.94 C383.19,76.92 383.43,78.94 383.61,81.40 C383.52,81.15 383.35,81.00 383.07,81.00 C382.66,81.00 381.72,79.09 380.98,76.75 C380.24,74.41 379.25,71.98 378.77,71.34 C378.26,70.66 378.33,69.91 378.95,69.53 C379.32,69.30 379.33,68.75 379.10,68.08 ZM 102.37 433.95 C103.31,434.08 104.21,434.17 105.06,434.23 C107.80,434.42 108.87,434.90 108.53,435.79 C108.26,436.50 108.70,437.33 109.52,437.64 C110.33,437.96 111.00,439.07 111.00,440.11 C111.00,440.94 111.19,441.41 112.30,441.67 C111.04,441.49 109.85,441.25 108.75,440.95 C104.53,439.78 104.33,439.40 106.61,436.88 C108.11,435.22 108.06,435.06 105.86,434.64 C104.68,434.42 103.52,434.19 102.37,433.95 ZM 106.15 351.53 C105.29,350.40 104.62,349.60 104.28,349.32 C103.47,348.67 102.21,348.37 101.48,348.65 C100.01,349.21 97.58,345.49 98.47,344.05 C98.78,343.55 98.57,342.85 98.00,342.50 C97.43,342.15 97.23,341.44 97.54,340.93 C97.64,340.78 97.69,340.64 97.71,340.51 C99.09,341.92 102.26,346.08 106.15,351.53 ZM 381.37 188.60 C380.60,187.75 379.95,187.09 379.50,186.76 C378.95,186.35 377.94,186.22 377.27,186.47 C375.91,186.97 373.69,183.64 374.70,182.63 C375.05,182.28 374.70,181.99 373.92,181.98 C372.82,181.97 372.79,181.79 373.76,181.17 C374.67,180.59 373.53,178.71 369.68,174.43 C368.93,173.60 368.22,172.79 367.55,171.98 L 367.57 172.00 C370.45,175.05 375.91,181.68 381.37,188.60 ZM 410.06 264.53 C410.25,263.96 410.44,263.37 410.64,262.76 C411.66,259.60 413.07,257.01 413.76,257.01 C414.31,257.00 414.58,255.85 414.58,253.85 C415.00,259.62 414.46,261.00 412.61,261.00 C411.92,261.00 410.95,262.37 410.06,264.53 ZM 273.00 413.44 C273.00,412.58 272.55,412.16 272.00,412.50 C271.45,412.84 271.00,413.54 271.00,414.06 C271.00,414.58 271.45,415.00 272.00,415.00 C272.55,415.00 273.00,414.30 273.00,413.44 ZM 393.65 204.73 C393.15,204.16 392.70,203.72 392.33,203.48 C391.13,202.70 389.83,201.03 389.43,199.79 C389.24,199.17 388.51,197.96 387.53,196.52 C389.86,199.57 391.98,202.41 393.65,204.73 ZM 347.08 186.13 C347.07,186.15 347.06,186.17 347.05,186.19 C346.79,186.51 345.55,185.12 344.15,182.98 C344.02,182.79 343.89,182.59 343.75,182.39 C341.99,179.70 340.20,177.35 339.77,177.17 C339.65,177.11 339.52,177.00 339.42,176.85 C339.52,176.96 339.63,177.02 339.75,177.02 C340.16,177.03 341.85,179.25 343.50,181.96 C343.72,182.31 343.94,182.66 344.15,182.98 C345.50,184.96 346.57,186.10 347.08,186.13 C347.44,185.42 348.64,180.27 349.82,174.38 C351.48,166.13 351.80,162.64 351.06,160.67 C351.82,162.67 351.54,165.97 349.93,173.92 C348.75,179.74 347.59,185.12 347.37,185.89 C347.32,186.05 347.22,186.13 347.08,186.13 ZM 214.50 138.92 C221.14,142.01 232.96,146.58 246.40,151.38 C233.09,146.63 221.31,142.08 214.50,138.95 C208.57,136.23 205.37,135.07 203.69,135.48 C205.14,134.87 208.07,135.93 214.50,138.92 ZM 171.74 371.06 C171.37,373.26 171.07,374.96 170.88,375.90 C170.48,377.90 169.78,379.78 168.93,381.36 C170.01,379.18 170.84,375.97 171.74,371.06 ZM 398.28 284.21 C398.76,283.59 399.26,282.96 399.78,282.34 C404.51,276.70 406.65,273.52 408.70,268.30 C406.73,273.48 404.10,277.47 398.60,283.83 C398.49,283.96 398.39,284.08 398.28,284.21 ZM 221.37 38.36 C221.40,38.34 221.43,38.33 221.46,38.31 C223.79,37.07 226.30,36.85 233.28,37.30 C227.42,36.93 224.23,37.03 221.37,38.36 ZM 358.14 49.21 C358.74,49.59 359.14,49.86 359.31,50.00 C359.65,50.27 360.86,51.22 362.52,52.53 C360.78,51.32 358.96,49.94 358.14,49.21 ZM 412.08 237.69 C411.16,234.96 409.68,231.52 408.02,228.13 C408.51,229.10 408.98,230.07 409.42,231.00 C410.58,233.45 411.43,235.53 412.08,237.69 ZM 216.51 493.93 C218.80,492.42 221.30,490.43 223.36,488.49 C221.41,490.47 219.11,492.30 216.51,493.93 ZM 185.55 454.92 C185.37,454.68 185.20,454.43 185.02,454.18 C183.79,452.48 182.21,449.59 180.61,446.29 C182.07,449.23 183.55,451.92 184.88,453.90 C185.12,454.26 185.34,454.60 185.55,454.92 ZM 114.68 441.93 C115.91,441.98 117.56,441.99 119.75,441.99 C120.63,441.99 121.54,441.97 122.46,441.92 C119.70,442.10 117.08,442.11 114.68,441.93 ZM 328.49 461.31 C323.77,460.85 321.43,460.34 320.00,459.64 C318.25,458.79 316.92,458.12 315.90,457.45 C316.92,458.12 318.25,458.79 320.00,459.64 C321.28,460.27 324.20,460.83 328.49,461.31 ZM 394.36 292.76 C394.15,292.24 394.02,291.76 394.02,291.37 C394.01,291.07 394.19,290.56 394.51,289.91 C394.15,290.95 394.10,291.88 394.36,292.76 ZM 245.80 36.01 C243.63,37.11 242.17,37.53 239.37,37.56 C241.85,37.51 243.39,37.11 245.80,36.01 ZM 253.65 454.14 C259.95,448.82 265.54,442.35 269.52,435.56 C265.49,442.43 259.96,448.84 253.65,454.14 ZM 73.13 424.91 C75.54,426.01 78.13,427.07 80.78,428.06 C77.95,427.05 75.38,425.99 73.13,424.91 ZM 362.46 125.27 C361.27,127.03 360.54,127.96 359.52,128.46 C360.43,127.85 361.44,126.78 362.46,125.27 ZM 37.11 356.39 C37.05,357.39 37.02,358.43 37.02,359.54 C36.98,373.84 40.99,383.95 51.25,395.48 C53.03,397.49 54.28,399.02 55.04,400.17 C54.17,398.93 52.79,397.22 51.25,395.48 C40.99,383.96 36.99,373.86 37.01,359.54 C37.01,358.45 37.04,357.40 37.11,356.39 ZM 336.05 171.21 C336.78,172.60 337.73,174.00 338.16,174.00 C337.70,174.00 336.77,172.80 336.10,171.32 C336.08,171.29 336.07,171.25 336.05,171.21 ZM 208.58 89.43 C206.91,94.85 205.47,100.31 205.04,103.00 C204.44,106.72 203.32,111.62 202.27,115.52 C203.32,111.61 204.44,106.71 205.03,103.00 C205.47,100.26 206.92,94.78 208.58,89.43 ZM 356.75 143.65 C357.36,142.98 358.12,142.21 359.02,141.35 C359.49,140.90 359.98,140.41 360.50,139.88 C359.80,140.62 359.14,141.28 358.53,141.86 C357.84,142.51 357.25,143.11 356.75,143.65 ZM 94.42 338.17 C94.12,337.93 93.81,337.68 93.50,337.41 C93.02,337.00 92.53,336.60 92.02,336.22 C92.85,336.81 93.60,337.41 94.25,338.02 C94.30,338.07 94.36,338.12 94.42,338.17 ZM 349.15 158.13 C349.88,158.07 350.36,158.83 351.01,160.52 C350.40,158.95 349.86,158.17 349.15,158.13 ZM 154.87 433.64 C160.00,431.34 164.60,428.69 168.14,425.89 C164.53,428.75 159.94,431.37 154.87,433.64 ZM 290.09 64.50 C291.03,65.66 291.62,65.72 292.56,64.95 C292.55,64.96 292.55,64.96 292.54,64.97 C291.59,65.76 291.02,65.73 290.09,64.50 ZM 186.97 459.85 C187.20,459.68 187.40,459.52 187.57,459.39 C187.54,459.56 187.45,459.67 187.31,459.72 C187.20,459.76 187.09,459.80 186.97,459.85 ZM 359.61 159.84 C358.72,157.90 357.99,155.94 357.39,153.89 C357.97,155.88 358.73,157.88 359.61,159.84 ZM 354.87 147.36 C355.25,147.83 355.98,149.60 356.70,151.71 C355.98,149.60 355.25,147.83 354.86,147.35 C354.81,147.29 354.77,147.21 354.74,147.12 C354.77,147.21 354.81,147.29 354.87,147.36 ZM 400.18 215.19 C400.12,215.12 400.06,215.06 400.00,215.00 C399.91,214.91 399.72,214.61 399.45,214.16 C399.72,214.61 399.91,214.91 400.00,215.00 C400.06,215.06 400.12,215.12 400.18,215.19 Z" fill="rgb(46,57,65)"/>
<path d="M 203.50 459.27 C199.50,458.73 189.84,446.92 186.00,437.88 C180.75,425.49 179.55,417.58 179.60,395.50 C179.63,379.22 180.14,371.98 182.36,356.54 C183.85,346.12 185.25,337.41 185.47,337.19 C185.69,336.98 186.45,337.16 187.17,337.60 C187.88,338.04 189.15,338.48 189.98,338.57 C190.82,338.67 195.38,339.89 200.12,341.30 C222.71,348.01 260.91,354.00 291.47,355.64 L 304.15 356.31 L 313.13 347.41 L 322.12 338.50 L 325.31 342.49 C327.06,344.69 329.89,348.02 331.58,349.89 L 334.66 353.29 L 345.58 350.65 C351.59,349.20 357.56,347.72 358.86,347.36 C361.16,346.73 361.20,346.83 360.50,351.10 C360.11,353.52 358.88,358.12 357.79,361.32 C352.76,376.02 363.65,364.19 370.01,348.04 C370.98,345.58 372.22,343.43 372.77,343.24 C375.70,342.27 389.16,366.51 390.79,375.68 C391.80,381.39 390.75,384.83 388.93,381.75 C386.97,378.43 386.50,380.04 386.43,390.25 C386.37,399.86 386.14,400.97 382.80,408.00 C378.41,417.24 367.00,428.80 356.73,434.42 C353.00,436.45 350.24,438.58 350.58,439.13 C350.99,439.79 357.27,439.89 368.75,439.42 C382.77,438.85 386.15,438.96 385.52,439.96 C384.91,440.96 386.06,441.07 390.89,440.51 C395.87,439.93 397.56,440.13 399.77,441.53 C404.37,444.44 408.00,448.28 408.00,450.22 C408.00,452.39 405.27,453.71 403.46,452.41 C389.87,442.66 388.72,442.00 385.45,442.00 C381.56,442.00 380.85,443.50 384.23,444.57 C387.56,445.63 391.64,448.91 392.81,451.48 C394.38,454.93 391.04,456.01 381.91,454.98 C377.83,454.53 364.15,453.86 351.50,453.49 C338.85,453.13 327.07,452.40 325.32,451.86 C321.91,450.82 321.69,450.29 320.44,440.00 C320.07,436.98 319.16,433.32 318.42,431.87 C316.85,428.81 311.91,424.42 308.99,423.50 C307.88,423.14 307.18,422.51 307.44,422.10 C307.70,421.68 311.51,419.21 315.91,416.61 C325.01,411.24 331.69,404.39 335.58,396.42 C337.05,393.42 338.65,390.72 339.13,390.42 C339.61,390.12 340.00,389.43 340.00,388.87 C340.00,388.32 337.41,390.05 334.25,392.71 C322.31,402.79 308.28,411.01 296.50,414.84 C286.77,418.00 276.20,420.57 275.64,419.91 C275.45,419.68 275.74,415.84 276.28,411.36 C276.82,406.88 276.94,401.07 276.54,398.44 L 275.83 393.66 L 272.93 398.96 C271.34,401.87 268.89,408.56 267.49,413.84 C261.68,435.66 248.80,450.29 229.16,457.37 C222.03,459.95 213.24,460.60 203.50,459.27 ZM 364.50 69.23 C364.65,69.35 364.84,69.45 365.05,69.53 C363.90,69.56 362.61,69.57 361.25,69.56 C348.66,69.47 344.00,71.87 344.00,78.43 C344.00,81.63 349.43,87.78 355.91,91.94 L 360.72 95.03 L 358.88 101.77 C356.70,109.70 354.44,112.05 346.58,114.52 C343.51,115.48 341.00,116.66 341.00,117.14 C341.00,117.61 338.14,118.00 334.63,118.00 C329.69,118.00 327.68,117.53 325.61,115.91 C324.15,114.76 323.02,113.30 323.10,112.66 C323.75,107.26 321.66,106.65 317.11,110.90 C313.45,114.32 312.93,118.00 316.11,118.00 C317.26,118.00 319.53,119.11 321.14,120.46 C324.75,123.50 329.87,124.99 336.75,124.99 C341.60,125.00 342.00,125.18 342.00,127.37 C342.00,131.14 345.65,134.99 349.32,135.08 C351.07,135.12 351.83,135.40 351.00,135.71 C350.17,136.01 348.57,137.10 347.43,138.13 C346.30,139.16 342.70,141.07 339.43,142.37 C330.22,146.04 328.16,147.15 327.53,148.78 C327.21,149.61 327.08,150.38 327.23,150.50 C327.38,150.61 330.99,150.25 335.25,149.69 C339.52,149.13 343.29,148.96 343.64,149.31 C344.84,150.50 340.86,155.13 336.19,157.99 C327.59,163.25 326.54,164.49 323.15,173.40 C321.36,178.13 319.80,182.00 319.69,181.99 C319.59,181.99 318.56,180.53 317.41,178.74 C316.25,176.96 313.79,173.02 311.94,170.00 C307.80,163.26 308.07,163.45 299.50,160.88 C270.84,152.28 256.10,147.13 219.47,132.90 C216.71,131.83 213.03,130.09 211.31,129.04 L 208.18 127.14 L 210.62 115.82 C217.01,86.19 220.16,76.40 222.92,77.61 C223.79,77.99 225.88,78.50 227.58,78.74 C230.07,79.10 230.99,78.67 232.41,76.50 C234.43,73.42 234.27,73.09 230.37,72.40 C226.16,71.66 220.08,67.32 218.87,64.21 C218.30,62.72 218.01,59.13 218.25,56.24 C218.75,49.90 221.37,46.66 227.18,45.18 C232.22,43.90 240.67,45.87 243.13,48.91 C244.06,50.06 245.30,51.00 245.88,51.00 C247.69,51.00 248.92,47.62 247.82,45.65 C247.27,44.66 247.04,43.62 247.32,43.35 C247.60,43.07 251.80,41.50 256.66,39.87 C275.61,33.49 306.78,35.11 329.28,43.63 C333.00,45.04 336.66,46.80 337.41,47.55 C338.15,48.29 338.97,48.70 339.22,48.45 C340.32,47.34 368.02,65.86 369.87,68.83 L 369.86 68.83 C369.50,68.32 368.47,67.55 367.25,66.94 C365.74,66.18 364.21,65.42 363.85,65.23 C362.80,64.70 363.41,68.43 364.50,69.23 ZM 197.31 316.83 C193.56,315.82 190.00,311.70 190.00,308.37 C190.00,304.90 192.79,305.38 196.56,309.50 C201.70,315.10 202.63,314.34 202.56,304.59 C202.56,304.29 202.56,304.00 202.55,303.72 C202.53,300.08 202.52,298.01 201.60,296.49 C200.32,294.37 197.28,293.32 190.00,290.58 C171.31,283.55 157.33,272.44 150.38,259.12 L 149.01 256.50 L 149.01 259.25 C149.00,260.76 148.48,262.00 147.85,262.00 C147.03,262.00 146.87,259.58 147.30,253.50 C147.89,245.24 147.18,243.06 145.12,246.74 C142.96,250.60 143.35,247.04 145.90,239.50 C150.06,227.25 154.16,219.44 164.94,203.30 C183.58,175.38 190.35,169.47 202.71,170.30 C210.12,170.81 221.70,176.73 227.08,182.77 C232.27,188.59 239.65,203.77 241.13,211.65 C242.59,219.49 241.68,231.22 239.05,238.18 C237.19,243.12 236.32,244.15 232.45,246.02 C230.00,247.21 228.00,248.54 228.00,248.97 C228.00,249.41 227.12,250.00 226.03,250.28 C223.13,251.04 222.43,247.61 224.80,244.25 C230.91,235.60 235.14,222.00 231.74,222.00 C229.94,222.00 225.71,226.71 217.32,238.07 C211.20,246.35 210.99,246.45 205.88,243.53 C202.75,241.74 200.00,241.02 196.25,241.01 C190.57,241.00 189.36,242.43 193.67,244.06 C198.35,245.85 205.62,251.82 209.71,257.24 C215.38,264.78 223.71,281.30 225.02,287.61 C227.16,297.91 222.08,310.77 214.02,315.44 C210.24,317.63 202.61,318.26 197.31,316.83 ZM 130.83 429.58 C129.16,428.73 128.58,427.66 128.77,425.83 C129.03,423.32 128.93,423.28 124.77,424.09 C117.80,425.43 106.57,425.14 102.65,423.50 C100.68,422.67 97.84,422.00 96.35,422.00 C88.91,422.00 75.91,417.33 69.08,412.21 C65.99,409.89 65.85,409.57 67.58,408.89 C68.64,408.48 71.16,408.11 73.19,408.07 C75.22,408.03 77.11,407.64 77.38,407.19 C77.65,406.75 74.46,403.49 70.29,399.94 C55.78,387.64 54.01,385.76 50.90,379.44 C49.19,375.98 48.06,372.71 48.39,372.18 C48.72,371.65 48.31,369.60 47.49,367.64 C46.67,365.67 46.00,361.45 46.00,358.24 C46.00,344.54 56.46,335.66 70.39,337.54 C84.11,339.40 92.81,346.00 101.94,361.47 C104.85,366.41 109.20,372.76 111.61,375.58 C114.03,378.41 116.00,381.16 116.00,381.70 C116.00,382.25 116.90,383.50 118.00,384.50 C119.10,385.50 120.00,386.01 120.00,385.65 C120.00,385.29 121.83,386.31 124.06,387.93 C126.30,389.55 131.36,392.13 135.31,393.66 C141.73,396.16 143.63,396.44 153.00,396.26 C158.77,396.16 164.62,395.94 166.00,395.79 C168.42,395.51 168.52,395.73 169.13,403.00 L 169.75 410.50 L 165.85 414.57 C157.45,423.31 136.31,432.37 130.83,429.58 ZM 380.57 291.86 C380.18,285.11 379.47,277.32 379.00,274.54 C378.54,271.77 377.87,265.16 377.52,259.86 C376.84,249.36 377.28,248.26 383.97,243.69 L 386.45 242.00 L 381.83 242.00 C378.89,242.00 377.03,241.51 376.70,240.66 C376.42,239.92 375.43,233.51 374.50,226.41 C373.58,219.31 371.74,208.21 370.41,201.74 C367.21,186.14 367.26,185.62 371.51,190.50 C392.53,214.64 408.63,243.30 405.15,250.39 C404.58,251.55 403.65,254.87 403.07,257.76 C401.30,266.58 395.18,277.01 387.38,284.47 C385.69,286.08 385.17,288.00 384.84,293.75 C384.57,298.56 383.91,301.52 382.86,302.57 C381.43,303.99 381.23,303.02 380.57,291.86 ZM 285.55 239.28 C286.18,240.90 289.73,241.25 290.63,239.78 C291.06,239.10 290.84,238.98 290.05,239.47 C289.15,240.03 288.94,239.71 289.33,238.38 C289.63,237.34 289.56,233.55 289.16,229.95 L 288.44 223.39 L 291.14 223.19 C292.62,223.07 294.50,223.64 295.30,224.44 C296.10,225.25 297.04,225.63 297.38,225.29 C297.72,224.95 298.00,225.19 298.00,225.83 C298.00,226.48 298.34,226.93 298.75,226.84 C299.16,226.75 300.30,227.03 301.28,227.46 C302.76,228.11 302.84,228.50 301.78,229.87 C300.69,231.26 300.72,231.33 302.00,230.39 C302.83,229.78 304.69,228.99 306.14,228.65 C308.83,228.00 310.94,225.01 308.72,224.98 C308.05,224.97 306.43,223.84 305.12,222.46 C303.54,220.79 302.11,220.15 300.85,220.55 C300.57,220.64 300.21,220.66 299.80,220.63 L 303.94 218.53 C307.77,216.59 309.00,215.42 309.00,213.71 C309.00,209.29 311.67,207.00 316.81,207.02 C322.77,207.03 323.66,207.65 324.53,212.32 C325.16,215.69 325.87,216.45 330.52,218.73 L 334.18 220.52 C333.18,220.27 330.91,221.12 328.71,222.58 L 324.73 225.21 L 327.61 227.57 C331.02,230.35 331.40,230.47 330.66,228.57 C330.32,227.67 330.75,227.13 331.81,227.14 C336.46,227.15 339.27,225.41 338.50,222.98 C338.05,221.58 338.77,220.73 341.49,219.44 C342.91,218.77 344.01,218.05 344.41,217.60 C345.51,218.13 346.72,219.18 348.28,220.78 L 351.97 224.55 L 350.25 228.03 C351.45,224.93 350.60,223.03 348.05,223.70 C345.50,224.36 344.81,225.42 344.35,229.32 C343.92,233.00 341.45,237.00 339.60,237.00 C338.66,237.00 338.56,237.62 339.37,240.07 C337.17,235.95 331.57,230.79 326.50,228.39 C310.58,220.84 292.80,233.34 292.80,252.10 C292.80,257.58 294.50,262.45 297.39,266.33 L 297.37 266.30 C294.35,262.82 294.21,262.77 293.53,264.89 C293.15,266.10 293.27,267.64 293.80,268.30 C294.33,268.96 295.06,270.86 295.41,272.51 C295.98,275.19 295.59,275.88 291.95,278.69 L 287.84 281.85 L 285.43 279.75 C284.10,278.60 283.24,277.42 283.52,277.14 C283.80,276.86 284.55,277.15 285.18,277.78 C286.05,278.65 286.92,278.30 288.72,276.35 C291.60,273.25 291.43,269.34 288.32,267.29 C286.32,265.97 286.19,266.01 286.67,267.84 C286.77,268.23 286.75,268.75 286.62,269.35 C286.65,268.84 286.57,268.33 286.38,267.80 C285.96,266.53 285.69,265.16 285.80,264.75 C285.91,264.34 285.58,264.00 285.07,264.00 C284.55,264.00 283.86,263.13 283.52,262.06 C283.18,261.00 281.35,259.61 279.44,258.98 C274.38,257.31 273.00,255.47 273.00,250.38 C273.00,246.13 273.19,245.82 276.75,244.42 C282.75,242.07 283.28,241.59 284.91,237.11 C285.25,236.20 285.50,235.47 285.68,234.85 C285.67,234.92 285.65,234.98 285.64,235.04 C285.32,236.66 285.28,238.56 285.55,239.28 ZM 310.05 292.75 C309.55,291.51 308.90,289.38 308.61,288.00 C308.25,286.27 306.84,284.96 304.04,283.75 C303.15,283.37 302.39,283.05 301.72,282.81 C304.76,283.73 305.00,283.61 305.02,281.66 C305.03,279.90 305.21,279.78 306.00,281.00 C306.53,281.83 306.99,282.05 307.02,281.50 C307.04,280.95 307.72,281.37 308.53,282.44 C309.60,283.86 310.02,283.99 310.07,282.94 C310.11,282.06 310.47,282.27 311.00,283.50 C311.47,284.60 311.89,284.94 311.93,284.25 C311.97,283.45 313.60,283.00 316.50,283.00 C318.98,283.00 321.00,282.58 321.00,282.07 C321.00,280.75 318.14,280.07 313.67,280.32 C311.56,280.44 309.62,280.20 309.36,279.77 C309.10,279.35 309.70,278.96 310.69,278.90 C311.97,278.83 311.77,278.57 310.00,278.00 C307.96,277.35 307.86,277.18 309.48,277.10 C310.87,277.03 309.82,275.95 305.98,273.46 C305.87,273.39 305.76,273.32 305.65,273.24 C311.05,275.97 317.66,276.76 324.50,274.91 C329.41,273.58 336.22,267.18 338.98,261.33 C341.01,256.99 341.62,248.08 340.40,242.87 C341.17,244.68 342.00,246.00 342.42,246.00 C342.94,246.00 344.82,244.40 346.61,242.45 C349.54,239.25 349.76,238.60 348.81,235.88 C348.71,235.60 348.63,235.34 348.56,235.09 C348.79,235.79 349.14,236.63 349.60,237.75 C351.23,241.66 352.08,242.48 355.50,243.44 L 359.50 244.56 L 359.50 257.50 L 355.50 258.46 C352.43,259.19 351.29,259.58 350.16,261.60 C350.26,260.99 350.41,260.12 350.56,259.30 C350.79,258.09 350.53,256.83 350.00,256.50 C349.44,256.16 349.28,256.57 349.62,257.46 C350.05,258.56 349.78,258.85 348.71,258.44 C346.86,257.73 345.78,259.26 346.60,261.41 C347.05,262.58 348.63,263.24 349.50,262.96 C349.17,263.71 348.81,264.61 348.39,265.71 C347.92,266.93 347.58,267.80 347.41,268.50 C347.44,268.29 347.48,268.08 347.53,267.87 C348.26,264.55 347.48,262.88 345.57,263.61 C343.71,264.32 342.83,268.10 344.15,269.69 C344.74,270.39 344.96,271.65 344.65,272.48 C344.33,273.31 344.67,274.55 345.41,275.24 C346.52,276.27 346.42,276.76 344.85,278.13 C343.10,279.65 342.71,279.64 339.36,277.93 C335.80,276.11 332.59,271.77 333.85,270.47 C334.21,270.09 332.83,270.85 330.79,272.15 C328.75,273.44 327.07,275.21 327.04,276.08 C327.02,276.94 325.88,278.71 324.50,280.00 C323.12,281.29 322.01,282.83 322.02,283.42 C322.03,284.14 322.28,284.11 322.77,283.36 C323.59,282.09 329.07,281.84 333.72,282.41 C332.92,282.63 331.95,283.00 330.61,283.51 C326.51,285.08 325.70,285.39 325.04,288.44 C325.21,286.88 325.98,285.56 327.25,284.67 L 329.50 283.10 L 327.18 283.05 C324.74,283.00 322.00,285.08 322.00,286.99 C322.00,287.61 322.52,287.80 323.15,287.40 C323.89,286.95 324.04,287.13 323.55,287.91 C323.14,288.59 322.24,288.92 321.56,288.66 C320.88,288.40 319.68,288.59 318.91,289.08 C317.83,289.76 318.02,289.97 319.69,289.98 C320.90,289.99 322.16,290.45 322.50,291.00 C323.23,292.18 323.99,292.28 324.48,291.54 L 323.91 295.00 L 317.43 295.00 C311.65,295.00 310.86,294.76 310.05,292.75 ZM 309.19 263.98 C305.67,261.83 302.04,255.24 302.04,251.00 C302.04,246.76 305.67,240.17 309.19,238.02 C313.16,235.61 319.89,235.38 324.04,237.52 C330.05,240.63 332.79,251.18 329.42,258.25 C325.94,265.55 316.26,268.28 309.19,263.98 ZM 187.13 488.66 C185.82,487.08 188.22,478.89 190.57,476.94 C192.71,475.16 192.29,473.77 189.99,475.01 C188.88,475.60 185.46,478.13 182.39,480.63 C177.63,484.51 176.91,484.84 177.52,482.84 C177.91,481.55 178.69,480.05 179.26,479.50 C179.96,478.82 180.04,478.95 179.49,479.90 C178.97,480.82 179.07,481.07 179.80,480.62 C180.41,480.24 180.65,479.25 180.33,478.42 C179.61,476.53 187.12,469.12 192.20,466.71 C196.48,464.68 202.96,464.58 212.42,466.41 C219.31,467.75 222.02,469.59 221.98,472.94 C221.95,476.15 217.33,482.44 212.64,485.66 C204.54,491.23 202.25,489.66 205.43,480.74 C206.17,478.67 206.43,476.77 206.02,476.51 C205.60,476.25 202.27,479.18 198.62,483.02 C192.05,489.92 189.30,491.27 187.13,488.66 ZM 298.72 72.54 C300.65,70.30 301.45,70.05 304.97,70.61 C307.19,70.97 308.99,70.86 308.98,70.38 C308.94,67.98 304.00,61.22 300.17,58.30 C293.59,53.28 285.71,53.90 278.00,60.04 L 275.50 62.03 L 277.62 63.82 C278.79,64.81 280.05,66.57 280.42,67.74 C280.79,68.92 282.72,71.30 284.71,73.05 C287.86,75.82 288.84,76.15 292.41,75.67 C295.10,75.31 297.25,74.24 298.72,72.54 ZM 366.65 112.17 C364.74,110.05 364.52,104.77 366.10,98.50 C366.91,95.31 368.13,93.49 370.60,91.81 C372.46,90.54 373.99,89.16 373.99,88.75 C374.00,88.34 374.50,88.00 375.12,88.00 C377.03,88.00 375.15,102.83 372.48,108.75 C369.89,114.48 369.14,114.92 366.65,112.17 ZM 241.82 60.45 C242.60,59.82 238.81,54.00 236.39,52.09 C232.84,49.30 227.33,49.34 224.31,52.17 C221.13,55.17 221.41,56.37 225.13,55.62 C227.76,55.10 228.87,55.56 232.15,58.51 C235.31,61.37 236.55,61.91 238.77,61.37 C240.27,61.01 241.65,60.60 241.82,60.45 ZM 381.67 310.33 C380.42,309.08 381.00,308.20 384.37,306.21 C389.03,303.46 391.39,304.89 388.05,308.45 C385.73,310.92 383.04,311.71 381.67,310.33 ZM 310.27 211.50 C310.06,214.15 310.14,214.25 310.95,212.34 C311.46,211.14 312.69,209.67 313.69,209.06 C315.30,208.07 315.22,207.98 313.00,208.22 C311.01,208.44 310.45,209.12 310.27,211.50 ZM 286.22 281.72 C288.09,283.63 289.94,285.26 290.81,285.81 C289.84,285.63 288.77,284.84 287.05,283.39 C284.39,281.15 283.00,279.64 282.71,278.15 ZM 276.00 418.00 C276.00,418.55 276.70,419.00 277.56,419.00 C278.42,419.00 278.84,418.55 278.50,418.00 C278.16,417.45 277.46,417.00 276.94,417.00 C276.42,417.00 276.00,417.45 276.00,418.00 ZM 343.54 217.27 C342.66,217.53 341.33,218.13 339.94,218.91 C339.08,219.40 338.17,219.81 337.32,220.10 L 338.53 219.16 C340.57,217.55 342.00,216.89 343.54,217.27 ZM 343.00 220.00 C343.00,220.55 343.20,221.00 343.44,221.00 C343.68,221.00 344.16,220.55 344.50,220.00 C344.84,219.45 344.64,219.00 344.06,219.00 C343.48,219.00 343.00,219.45 343.00,220.00 ZM 288.53 275.19 C288.83,275.50 288.28,276.06 287.29,276.44 C285.87,276.98 285.75,276.86 286.73,275.88 C287.41,275.19 288.22,274.89 288.53,275.19 ZM 351.27 276.33 C351.44,277.96 350.09,279.57 346.77,282.77 L 343.37 286.04 L 343.16 285.92 C343.61,285.83 345.69,283.89 347.90,281.49 C350.00,279.22 351.11,277.68 351.27,276.33 ZM 285.43 272.30 C285.18,272.74 284.91,273.19 284.60,273.63 L 283.01 275.98 C283.32,275.25 283.84,274.46 284.54,273.54 C284.88,273.09 285.18,272.68 285.43,272.30 ZM 347.45 270.33 C347.64,270.84 348.00,271.36 348.55,272.04 L 348.51 272.01 C347.96,271.55 347.61,271.01 347.45,270.33 ZM 284.99 230.34 C284.75,229.89 284.46,229.38 284.13,228.80 L 283.34 227.43 L 283.97 228.45 C284.38,229.12 284.72,229.74 284.99,230.34 ZM 292.10 285.69 C292.65,285.41 293.39,284.96 294.17,284.43 C293.35,285.06 292.69,285.48 292.10,285.69 Z" fill="rgb(190,132,82)"/>
<path d="M 0.00 256.00 L 0.00 0.00 L 270.50 0.00 L 541.00 0.00 L 541.00 256.00 L 541.00 512.00 L 270.50 512.00 L 0.00 512.00 L 0.00 256.00 ZM 199.50 498.09 C207.17,497.53 211.56,496.71 214.01,495.39 C224.56,489.69 231.00,480.80 231.00,471.94 L 231.00 467.27 L 237.75 464.24 C250.41,458.57 262.35,447.79 269.52,435.56 C271.96,431.39 272.50,431.05 279.00,429.57 C291.59,426.71 301.09,428.09 307.91,433.79 C311.01,436.37 311.20,436.94 311.93,445.78 C312.76,455.81 313.00,456.22 320.00,459.64 C322.76,460.99 328.87,461.62 349.00,462.62 C383.97,464.35 396.59,464.31 405.76,462.42 C417.40,460.01 420.00,458.22 420.00,452.61 C420.00,449.12 414.61,441.51 409.84,438.28 C402.47,433.29 397.88,432.00 387.48,432.00 C381.27,432.00 378.00,431.62 378.00,430.90 C378.00,430.30 379.85,427.71 382.11,425.15 C388.84,417.54 393.18,408.93 395.43,398.75 C395.82,397.00 396.69,396.00 397.83,396.00 C399.42,396.00 399.65,394.87 399.86,386.25 C400.00,380.39 399.51,374.00 398.63,370.24 C396.93,362.95 389.43,348.52 383.87,341.86 C380.14,337.39 380.00,336.95 380.00,329.82 L 380.00 322.41 L 384.25 321.26 C389.54,319.82 395.81,314.71 397.62,310.36 C399.90,304.92 399.42,298.60 396.52,295.85 C392.94,292.47 393.40,289.86 398.60,283.83 C404.80,276.65 407.36,272.50 409.42,266.25 C410.46,263.13 411.75,261.00 412.61,261.00 C414.95,261.00 415.20,258.80 414.05,248.36 C413.19,240.63 412.19,236.88 409.42,231.00 C406.42,224.63 401.81,216.80 400.00,215.00 C399.73,214.73 398.41,212.40 397.07,209.84 C394.71,205.32 374.24,179.06 367.57,172.00 C363.19,167.37 359.34,160.53 357.39,153.89 C356.51,150.93 355.38,147.99 354.87,147.36 C354.24,146.59 355.43,144.81 358.53,141.86 C364.08,136.59 373.98,123.78 377.98,116.68 C382.31,109.00 384.06,101.02 383.95,89.50 C383.89,84.00 383.44,77.90 382.94,75.94 C381.40,69.95 376.01,63.02 368.07,56.85 C363.91,53.61 359.97,50.53 359.31,50.00 C358.66,49.47 354.33,46.80 349.70,44.06 C343.02,40.12 341.15,38.50 340.69,36.29 C340.38,34.76 338.82,31.96 337.23,30.08 C334.66,27.02 333.70,26.61 328.39,26.22 C323.69,25.88 321.43,26.26 317.72,28.00 C314.02,29.74 312.11,30.06 308.76,29.50 C301.73,28.33 269.93,27.82 268.66,28.86 C268.02,29.38 264.80,30.13 261.50,30.52 C257.92,30.95 252.81,32.58 248.82,34.56 C242.36,37.77 241.84,37.86 233.28,37.30 C226.30,36.85 223.79,37.07 221.46,38.31 C216.96,40.71 212.15,45.71 210.40,49.81 C208.32,54.68 209.08,63.58 212.01,68.80 L 214.22 72.74 L 210.15 84.62 C207.91,91.15 205.61,99.43 205.03,103.00 C203.91,109.98 200.96,121.18 200.02,122.00 C198.04,123.73 196.05,128.50 194.58,135.01 C193.09,141.62 192.31,143.09 188.00,147.50 C182.89,152.73 181.00,156.31 180.99,160.82 C180.98,166.13 178.95,170.63 173.67,177.01 C170.72,180.58 164.58,189.12 160.02,196.00 C155.47,202.88 150.95,209.66 149.97,211.08 C143.68,220.21 134.43,243.56 133.29,253.18 L 132.71 258.12 L 135.60 257.81 C138.18,257.53 138.53,257.83 138.76,260.50 C138.98,263.13 141.98,276.00 142.37,276.00 C142.45,276.00 143.92,275.60 145.64,275.10 C148.60,274.25 149.15,274.57 155.64,280.91 C159.41,284.60 164.88,288.91 167.80,290.49 L 173.10 293.37 L 172.39 311.86 L 171.69 330.34 L 174.47 332.55 L 177.24 334.77 L 174.61 352.63 C169.83,384.99 169.95,384.75 158.48,386.91 C152.82,387.98 150.28,388.00 145.48,387.01 C131.98,384.24 124.38,378.37 113.73,362.50 C105.71,350.56 97.89,340.00 97.05,340.00 C96.68,340.00 95.42,339.11 94.25,338.02 C88.81,332.95 76.40,328.06 68.86,328.02 C60.76,327.98 51.40,331.55 46.34,336.61 C39.64,343.31 37.02,349.74 37.01,359.54 C36.99,373.86 40.99,383.96 51.25,395.48 C53.86,398.42 56.00,401.31 56.00,401.91 C56.00,402.55 53.92,403.00 50.93,403.00 L 45.85 403.00 L 47.99 405.75 C52.58,411.65 63.84,420.31 72.50,424.60 C80.30,428.47 92.09,432.01 105.86,434.64 C108.06,435.06 108.11,435.22 106.61,436.88 C104.33,439.40 104.53,439.78 108.75,440.95 C123.47,445.03 153.62,437.39 168.14,425.89 C170.15,424.30 172.00,423.00 172.27,423.00 C172.53,423.00 173.05,424.91 173.42,427.25 C174.32,432.87 181.27,449.01 185.02,454.18 C186.66,456.45 188.00,458.57 188.00,458.90 C188.00,459.23 185.81,460.73 183.13,462.23 C174.31,467.19 168.00,476.13 168.00,483.67 C168.00,488.45 170.51,492.84 173.70,493.64 C175.17,494.01 177.92,495.36 179.82,496.65 C183.62,499.23 183.68,499.23 199.50,498.09 ZM 276.00 418.00 C276.00,417.45 276.42,417.00 276.94,417.00 C277.46,417.00 278.16,417.45 278.50,418.00 C278.84,418.55 278.42,419.00 277.56,419.00 C276.70,419.00 276.00,418.55 276.00,418.00 ZM 322.50 291.00 C322.16,290.45 320.90,289.99 319.69,289.98 C318.02,289.97 317.83,289.76 318.91,289.08 C319.68,288.59 320.88,288.40 321.56,288.66 C322.24,288.92 323.14,288.59 323.55,287.91 C324.04,287.13 323.89,286.95 323.15,287.40 C322.52,287.80 322.00,287.61 322.00,286.99 C322.00,285.08 324.74,283.00 327.18,283.05 L 329.50 283.10 L 327.25 284.67 C325.80,285.68 325.00,287.27 325.00,289.12 C325.00,291.96 323.70,292.94 322.50,291.00 ZM 286.22 281.72 L 282.02 277.44 L 284.60 273.63 C286.15,271.36 286.98,269.03 286.67,267.84 C286.19,266.01 286.32,265.97 288.32,267.29 C291.43,269.34 291.60,273.25 288.72,276.35 C286.92,278.30 286.05,278.65 285.18,277.78 C284.55,277.15 283.80,276.86 283.52,277.14 C283.24,277.42 284.10,278.60 285.43,279.75 L 287.84 281.85 L 291.95 278.69 C295.59,275.88 295.98,275.19 295.41,272.51 C295.06,270.86 294.33,268.96 293.80,268.30 C293.27,267.64 293.15,266.10 293.53,264.89 C294.21,262.77 294.35,262.82 297.37,266.30 C299.09,268.29 302.96,271.51 305.98,273.46 C309.82,275.95 310.87,277.03 309.48,277.10 C307.86,277.18 307.96,277.35 310.00,278.00 C311.77,278.57 311.97,278.83 310.69,278.90 C309.70,278.96 309.10,279.35 309.36,279.77 C309.62,280.20 311.56,280.44 313.67,280.32 C318.14,280.07 321.00,280.75 321.00,282.07 C321.00,282.58 318.98,283.00 316.50,283.00 C313.60,283.00 311.97,283.45 311.93,284.25 C311.89,284.94 311.47,284.60 311.00,283.50 C310.47,282.27 310.11,282.06 310.07,282.94 C310.02,283.99 309.60,283.86 308.53,282.44 C307.72,281.37 307.04,280.95 307.02,281.50 C306.99,282.05 306.53,281.83 306.00,281.00 C305.21,279.78 305.03,279.90 305.02,281.66 C305.00,283.66 304.75,283.74 301.48,282.73 C298.43,281.79 297.57,281.94 295.02,283.83 C293.40,285.02 291.71,286.00 291.25,286.00 C290.79,286.00 288.53,284.07 286.22,281.72 ZM 288.53 275.19 C288.22,274.89 287.41,275.19 286.73,275.88 C285.75,276.86 285.87,276.98 287.29,276.44 C288.28,276.06 288.83,275.50 288.53,275.19 ZM 339.60 284.00 C336.28,281.87 324.02,281.41 322.77,283.36 C322.28,284.11 322.03,284.14 322.02,283.42 C322.01,282.83 323.12,281.29 324.50,280.00 C325.88,278.71 327.02,276.94 327.04,276.08 C327.07,275.21 328.75,273.44 330.79,272.15 C332.83,270.85 334.21,270.09 333.85,270.47 C332.59,271.77 335.80,276.11 339.36,277.93 C342.71,279.64 343.10,279.65 344.85,278.13 C346.42,276.76 346.52,276.27 345.41,275.24 C344.67,274.55 344.33,273.31 344.65,272.48 C344.96,271.65 344.74,270.39 344.15,269.69 C342.83,268.10 343.71,264.32 345.57,263.61 C347.48,262.88 348.26,264.55 347.53,267.87 C347.10,269.81 347.40,271.09 348.51,272.01 C352.36,275.20 352.26,276.77 347.90,281.49 C345.62,283.97 343.47,285.97 343.12,285.93 C342.78,285.89 341.20,285.02 339.60,284.00 ZM 346.60 261.41 C345.78,259.26 346.86,257.73 348.71,258.44 C349.78,258.85 350.05,258.56 349.62,257.46 C349.28,256.57 349.44,256.16 350.00,256.50 C350.53,256.83 350.79,258.09 350.56,259.30 C350.33,260.51 350.12,261.84 350.07,262.25 C349.93,263.66 347.21,263.00 346.60,261.41 ZM 339.87 241.50 C338.55,237.85 338.50,237.00 339.60,237.00 C341.45,237.00 343.92,233.00 344.35,229.32 C344.81,225.42 345.50,224.36 348.05,223.70 C351.00,222.93 351.68,225.59 349.54,229.56 C348.11,232.21 347.97,233.46 348.81,235.88 C349.76,238.60 349.54,239.25 346.61,242.45 C344.82,244.40 342.94,246.00 342.42,246.00 C341.91,246.00 340.76,243.98 339.87,241.50 ZM 285.55 239.28 C285.28,238.56 285.32,236.66 285.64,235.04 C286.06,232.97 285.56,231.03 283.97,228.45 L 281.72 224.80 L 285.98 220.90 C288.33,218.76 290.71,217.00 291.26,217.00 C291.81,217.00 293.77,217.93 295.62,219.07 C297.55,220.27 299.77,220.89 300.85,220.55 C302.11,220.15 303.54,220.79 305.12,222.46 C306.43,223.84 308.05,224.97 308.72,224.98 C310.94,225.01 308.83,228.00 306.14,228.65 C304.69,228.99 302.83,229.78 302.00,230.39 C300.72,231.33 300.69,231.26 301.78,229.87 C302.84,228.50 302.76,228.11 301.28,227.46 C300.30,227.03 299.16,226.75 298.75,226.84 C298.34,226.93 298.00,226.48 298.00,225.83 C298.00,225.19 297.72,224.95 297.38,225.29 C297.04,225.63 296.10,225.25 295.30,224.44 C294.50,223.64 292.62,223.07 291.14,223.19 L 288.44 223.39 L 289.16 229.95 C289.56,233.55 289.63,237.34 289.33,238.38 C288.94,239.71 289.15,240.03 290.05,239.47 C290.84,238.98 291.06,239.10 290.63,239.78 C289.73,241.25 286.18,240.90 285.55,239.28 ZM 327.61 227.57 L 324.73 225.21 L 328.71 222.58 C331.00,221.06 333.37,220.20 334.30,220.56 C335.18,220.90 337.72,220.16 339.94,218.91 C342.16,217.66 344.22,216.89 344.52,217.19 C344.83,217.49 343.46,218.50 341.49,219.44 C338.77,220.73 338.05,221.58 338.50,222.98 C339.27,225.41 336.46,227.15 331.81,227.14 C330.75,227.13 330.32,227.67 330.66,228.57 C331.40,230.47 331.02,230.35 327.61,227.57 ZM 343.00 220.00 C343.00,219.45 343.48,219.00 344.06,219.00 C344.64,219.00 344.84,219.45 344.50,220.00 C344.16,220.55 343.68,221.00 343.44,221.00 C343.20,221.00 343.00,220.55 343.00,220.00 ZM 310.27 211.50 C310.45,209.12 311.01,208.44 313.00,208.22 C315.22,207.98 315.30,208.07 313.69,209.06 C312.69,209.67 311.46,211.14 310.95,212.34 C310.14,214.25 310.06,214.15 310.27,211.50 ZM 307.72 189.67 C299.27,186.33 299.24,186.26 303.30,180.26 C306.07,176.18 307.19,176.18 309.36,180.25 C310.31,182.04 312.24,185.44 313.65,187.81 C315.06,190.18 316.05,192.26 315.86,192.43 C315.66,192.60 312.00,191.36 307.72,189.67 ZM 279.00 188.96 C276.52,187.37 274.05,185.70 273.50,185.25 C271.21,183.35 263.09,178.00 262.50,178.00 C262.15,178.00 259.90,176.65 257.50,175.00 C255.10,173.35 252.69,172.00 252.15,172.00 C251.60,172.00 249.88,170.94 248.33,169.65 C246.77,168.36 240.32,164.17 234.00,160.34 C204.67,142.59 202.00,140.82 202.02,139.18 C202.06,134.19 204.05,134.16 214.50,138.95 C228.97,145.60 265.86,158.66 292.25,166.47 C297.06,167.90 300.99,169.39 300.98,169.78 C300.97,170.18 298.97,173.65 296.54,177.50 C286.14,193.97 286.47,193.75 279.00,188.96 ZM 325.50 188.88 C326.47,184.31 330.05,176.00 331.06,176.00 C332.06,176.00 336.00,181.44 336.00,182.84 C336.00,183.40 334.09,185.40 331.75,187.28 C325.03,192.67 324.68,192.76 325.50,188.88 ZM 343.50 181.96 C341.85,179.25 340.16,177.03 339.75,177.02 C339.34,177.01 339.00,176.32 339.00,175.50 C339.00,174.68 338.62,174.00 338.16,174.00 C337.35,174.00 334.63,168.96 335.21,168.53 C335.37,168.42 337.52,166.95 340.00,165.28 C342.48,163.60 345.36,161.28 346.40,160.12 C348.90,157.34 349.84,157.45 351.05,160.63 C351.80,162.60 351.49,166.09 349.82,174.38 C348.59,180.50 347.35,185.81 347.05,186.19 C346.75,186.56 345.15,184.66 343.50,181.96 ZM 348.63 126.75 C347.33,121.91 347.92,120.54 352.01,118.82 C356.61,116.89 356.74,117.16 354.88,124.56 C353.97,128.18 353.34,129.00 351.50,129.00 C349.99,129.00 349.03,128.24 348.63,126.75 ZM 356.62 128.19 C356.23,127.56 358.59,119.06 359.70,117.13 C359.81,116.93 361.05,117.05 362.45,117.40 C365.71,118.22 365.71,120.49 362.46,125.27 C360.06,128.81 357.72,129.98 356.62,128.19 ZM 364.50 69.23 C363.41,68.43 362.80,64.70 363.85,65.23 C364.21,65.42 365.74,66.18 367.25,66.94 C368.76,67.70 370.00,68.70 370.00,69.16 C370.00,70.19 365.88,70.25 364.50,69.23 ZM 289.59 63.83 C288.21,61.85 288.19,61.38 289.45,60.12 C290.64,58.93 291.18,58.90 292.45,59.96 C294.38,61.56 294.43,63.40 292.59,64.93 C291.47,65.85 290.85,65.63 289.59,63.83 Z" fill="rgb(249,245,233)"/>
</g>
</svg>