<svg xmlns="http://www.w3.org/2000/svg" width="384.8" height="55.7" viewBox="-33.4 0 384.8 55.7"><path fill="#e37863" d="M9.9 39.1q0 4-1.7 7.1t-4.7 5.1-7 3.1q-4 1-8.4 1-3 0-5.8-.3t-5.4-1.1a30 30 0 0 1-10.3-6l7-9.2q3.4 2.7 7 4.1a19 19 0 0 0 11.4.8q1.8-.4 2.8-1.2t1.5-1.6q.4-.9.4-1.7 0-1.2-.6-2.1a6 6 0 0 0-2-1.7q-1.4-.8-3.8-1.6l-5.8-1.7q-3.8-1-6.7-2.3t-4.9-3.2a11 11 0 0 1-3-4.4 16 16 0 0 1-1-6.1 15 15 0 0 1 5.6-11.8q2.7-2.1 6.3-3.2 3.6-1 8-1.1 4.8 0 9.4.9t9.6 4.2L2.2 15.2a21 21 0 0 0-13.5-3.7q-3 0-4.9 1a3.6 3.6 0 0 0-1.3 5.2q.6.9 2 1.6t3.7 1.5l5.6 1.7q5.3 1.4 8.4 3.2t4.9 3.9a12 12 0 0 1 2.3 4.5q.5 2.4.5 5m28.7-2.3 5.5-19.7L48.8.7h13.1L44.7 55.1H31.8L14.4.7h13.4l4.9 16.7 5.4 19.4zm63.8 14.6a24 24 0 0 1-14.3 4.2q-3.8 0-7.5-1a17 17 0 0 1-6.9-3.2 15 15 0 0 1-6.9-13.2V18q0-4.5 1.9-7.8t4.9-5.6 6.8-3.4q3.8-1 7.7-1.1 4.8 0 9.7 1.4t8.1 4.2l-6.1 9.7q-2.7-2.2-5.7-3a17 17 0 0 0-5.6-.8q-1.6 0-3.2.5c-1.6.5-2 .8-2.9 1.5a8 8 0 0 0-2.2 2.6 8 8 0 0 0-.8 4v15.4q0 2.4.8 4c.8 1.6 1.2 1.9 2.1 2.6a9 9 0 0 0 5.9 2q1.4 0 3-.4 1.5-.4 2.9-1.5V35h-7.5V24.3h20.1v23.3a22 22 0 0 1-4.3 3.8"/><path fill="#556a72" d="M122.9 25.1v-9.2h4.8l1.8-9.9h9.5v9.9h8.8v9.2H139v15.2q0 2.8 1.3 3.8t4.3.9l5.5-.2.9 9.4a24 24 0 0 1-5.3 1.2l-4.9.3q-4.2 0-6.8-1t-4-2.7a10 10 0 0 1-1.9-4.1 29 29 0 0 1-.5-5.3V25.1zM179.5 44l-.4 1.1-.4 1-1.1 2.2q-.7 1.5-2.1 2.9-1.3 1.4-3.2 2.4t-4.5.6q-4.2-1-7.1-3.2-1.8-1.4-3-3.6l-.6-1.3-.4-1.3v-.3l-.2-.9-.1-.6-.1-.7v-1.2l-.1-.9v-1.3q0-3.6 1.3-6.6t3.6-4.7q2.3-1.9 5.6-2.9 2.9-.8 6.2-.9v-4l9.3 9.3-9.3 9.3v-4.3l-1.6.4q-.8.3-1.5.8-2 1.3-1.9 4.3l.1.3.2.8h.1l.2.6.2.3v.3l.2.3.2.2.2.2.4.3q1.8 1.3 4.1 1.3t4-1.3q2-1.2 1.9-4.3v-3.7l.2 1.7.1 2.4-.1 2-.2 1.5zm-20.6-18.8q-1.6 1.2-2.8 3a14 14 0 0 1 2.9-7.5q1-1.2 2.2-2.1 2.3-1.8 5.6-2.9l1.4-.3 1.4-.3V21q-2.3.2-4 .8-3.7 1-6.7 3.4m27.7-6.6q4.8 4 4.7 11.5v9.6l-.3 3.5q-.3 1.6-.9 3-1.4 2.9-3.6 4.7a16 16 0 0 1-5.6 2.9q-1.2.4-2.6.6l-2.8.4 2.9-3.1q2.4-3.1 2.9-6.8l.2-1.3.1-1.4-.1-1.8-.6-3.7-.2-.8-.2-.8 6-6L172 14.7l.8-.1h.8q8.2.1 13 4"/><path fill="#47a4a5" d="M232.8.7q4.6 0 7.8 1.5t5.3 3.9c2 2.4 2.4 3.5 3 5.5q1 3.1 1 6.4c0 3.3-.4 4.3-1.1 6.4q-1.1 3.1-3.4 5.5a18 18 0 0 1-12.9 5.4h-10.9v19.8H209V.7zm-11.3 23.4h9.2q3.6 0 5.1-1.8t1.5-4.4-1.5-4.4-5.1-1.8h-9.2zm47.2-.3v31.3h-12.6V.7h11.3l9.1 13.2L288.4 32h.2V.7h12.6v54.4H290l-11.2-16.6-9.7-14.7zm78.4 27.6a24 24 0 0 1-14.3 4.2q-3.7 0-7.5-1c-3.8-1-4.8-1.7-6.9-3.2a15 15 0 0 1-6.9-13.2V18q0-4.5 1.9-7.8t4.9-5.6 6.8-3.4q3.8-1 7.7-1.1 4.8 0 9.7 1.4t8.1 4.2l-6.1 9.7q-2.7-2.2-5.7-3a17 17 0 0 0-5.6-.8q-1.6 0-3.2.5c-1.6.5-2 .8-2.9 1.5a8 8 0 0 0-2.2 2.6 8 8 0 0 0-.8 4v15.4q0 2.4.8 4c.8 1.6 1.2 1.9 2.1 2.6a9 9 0 0 0 5.9 2q1.3 0 3-.4 1.5-.4 2.9-1.5V35h-7.5V24.3h20.1v23.3a19 19 0 0 1-4.3 3.8"/></svg>